<svg xmlns="http://www.w3.org/2000/svg" xmlns:xlink="http://www.w3.org/1999/xlink" version="1.1" class="marks" width="1341" height="162" viewBox="0 0 1341 162"><rect width="1341" height="162" fill="white"/><g fill="none" stroke-miterlimit="10" transform="translate(53,5)"><g class="mark-group role-frame root" role="graphics-object" aria-roledescription="group mark container"><g transform="translate(0,0)"><path class="background" aria-hidden="true" d="M0.5,0.5h120v120h-120Z" stroke="#ddd"/><g><g class="mark-group role-axis" aria-hidden="true"><g transform="translate(0.5,120.5)"><path class="background" aria-hidden="true" d="M0,0h0v0h0Z" pointer-events="none"/><g><g class="mark-rule role-axis-grid" pointer-events="none"><line transform="translate(0,-120)" x2="0" y2="120" stroke="#ddd" stroke-width="1" opacity="1"/><line transform="translate(48,-120)" x2="0" y2="120" stroke="#ddd" stroke-width="1" opacity="1"/><line transform="translate(96,-120)" x2="0" y2="120" stroke="#ddd" stroke-width="1" opacity="1"/></g></g><path class="foreground" aria-hidden="true" d="" pointer-events="none" display="none"/></g></g><g class="mark-group role-axis" aria-hidden="true"><g transform="translate(0.5,0.5)"><path class="background" aria-hidden="true" d="M0,0h0v0h0Z" pointer-events="none"/><g><g class="mark-rule role-axis-grid" pointer-events="none"><line transform="translate(0,120)" x2="120" y2="0" stroke="#ddd" stroke-width="1" opacity="1"/><line transform="translate(0,65)" x2="120" y2="0" stroke="#ddd" stroke-width="1" opacity="1"/><line transform="translate(0,11)" x2="120" y2="0" stroke="#ddd" stroke-width="1" opacity="1"/></g></g><path class="foreground" aria-hidden="true" d="" pointer-events="none" display="none"/></g></g><g class="mark-group role-axis" role="graphics-symbol" aria-roledescription="axis" aria-label="X-axis titled 'FeePaid' for a linear scale with values from 0 to 5,000"><g transform="translate(0.5,120.5)"><path class="background" aria-hidden="true" d="M0,0h0v0h0Z" pointer-events="none"/><g><g class="mark-rule role-axis-tick" pointer-events="none"><line transform="translate(0,0)" x2="0" y2="5" stroke="#888" stroke-width="1" opacity="1"/><line transform="translate(48,0)" x2="0" y2="5" stroke="#888" stroke-width="1" opacity="1"/><line transform="translate(96,0)" x2="0" y2="5" stroke="#888" stroke-width="1" opacity="1"/></g><g class="mark-text role-axis-label" pointer-events="none"><text text-anchor="start" transform="translate(0,15)" font-family="sans-serif" font-size="10px" fill="#000" opacity="1">0</text><text text-anchor="middle" transform="translate(48,15)" font-family="sans-serif" font-size="10px" fill="#000" opacity="1">2,000</text><text text-anchor="middle" transform="translate(96,15)" font-family="sans-serif" font-size="10px" fill="#000" opacity="1">4,000</text></g><g class="mark-rule role-axis-domain" pointer-events="none"><line transform="translate(0,0)" x2="120" y2="0" stroke="#888" stroke-width="1" opacity="1"/></g><g class="mark-text role-axis-title" pointer-events="none"><text text-anchor="middle" transform="translate(60,30)" font-family="sans-serif" font-size="11px" font-weight="bold" fill="#000" opacity="1">FeePaid</text></g></g><path class="foreground" aria-hidden="true" d="" pointer-events="none" display="none"/></g></g><g class="mark-group role-axis" role="graphics-symbol" aria-roledescription="axis" aria-label="Y-axis titled 'density' for a linear scale with values from 0.0000 to 0.0022"><g transform="translate(0.5,0.5)"><path class="background" aria-hidden="true" d="M0,0h0v0h0Z" pointer-events="none"/><g><g class="mark-rule role-axis-tick" pointer-events="none"><line transform="translate(0,120)" x2="-5" y2="0" stroke="#888" stroke-width="1" opacity="1"/><line transform="translate(0,65)" x2="-5" y2="0" stroke="#888" stroke-width="1" opacity="1"/><line transform="translate(0,11)" x2="-5" y2="0" stroke="#888" stroke-width="1" opacity="1"/></g><g class="mark-text role-axis-label" pointer-events="none"><text text-anchor="end" transform="translate(-7,123)" font-family="sans-serif" font-size="10px" fill="#000" opacity="1">0.000</text><text text-anchor="end" transform="translate(-7,68.45454545454545)" font-family="sans-serif" font-size="10px" fill="#000" opacity="1">0.001</text><text text-anchor="end" transform="translate(-7,13.909090909090914)" font-family="sans-serif" font-size="10px" fill="#000" opacity="1">0.002</text></g><g class="mark-rule role-axis-domain" pointer-events="none"><line transform="translate(0,120)" x2="0" y2="-120" stroke="#888" stroke-width="1" opacity="1"/></g><g class="mark-text role-axis-title" pointer-events="none"><text text-anchor="middle" transform="translate(-36.0244140625,60) rotate(-90) translate(0,-2)" font-family="sans-serif" font-size="11px" font-weight="bold" fill="#000" opacity="1">density</text></g></g><path class="foreground" aria-hidden="true" d="" pointer-events="none" display="none"/></g></g><g class="mark-group role-scope pathgroup" role="graphics-object" aria-roledescription="group mark container"><g transform="translate(0,0)"><path class="background" aria-hidden="true" d="M0,0h120v120h-120Z"/><g><g class="mark-area role-mark marks" role="graphics-object" aria-roledescription="area mark container"><path aria-label="FeePaid: 1; density: 0.00112538359719; survival_status: 1" role="graphics-symbol" aria-roledescription="area mark" d="M0.024,58.615L5.939,83.67L11.854,110.211L17.769,117.809L23.684,117.904L29.599,117.397L35.514,118.071L41.428,119.144L47.343,119.022L53.258,119.493L59.173,119.784L65.088,119.818L71.003,119.688L76.918,119.756L82.833,119.942L88.748,119.882L94.663,119.933L100.578,119.951L106.493,119.951L112.407,119.924L118.322,119.765L124.237,119.906L130.152,120L136.067,119.912L141.982,120L147.897,119.956L153.812,120L159.727,119.931L165.642,119.97L171.557,120L177.472,120L183.387,120L189.301,120L195.216,120L201.131,120L207.046,120L212.961,120L218.876,120L224.791,120L230.706,120L236.621,120L242.536,120L248.451,120L254.366,120L260.28,120L266.195,120L272.11,120L278.025,120L283.94,119.987L289.855,119.937L295.77,120L301.685,120L307.6,120L313.515,120L319.43,120L325.345,120L331.26,120L337.174,120L343.089,120L349.004,119.999L354.919,120L360.834,120L366.749,120L372.664,120L378.579,120L384.494,120L390.409,120L396.324,119.993L402.239,120L408.153,120L414.068,120L419.983,120L425.898,120L431.813,120L437.728,120L443.643,120L449.558,120L455.473,120L461.388,120L467.303,120L473.218,120L479.133,120L485.047,120L490.962,120L496.877,120L502.792,120L508.707,120L514.622,120L520.537,120L526.452,120L532.367,120L538.282,120L544.197,120L550.112,120L556.026,120L561.941,120L567.856,120L573.771,120L579.686,120L585.601,120L591.516,120L597.431,120L603.346,120L609.261,120L615.176,120L621.091,120L627.006,120L632.92,120L638.835,120L644.75,120L650.665,120L656.58,120L662.495,120L668.41,120L674.325,120L680.24,120L686.155,120L692.07,120L697.985,120L703.899,119.998L709.814,120L715.729,120L721.644,120L727.559,120L733.474,120L739.389,120L745.304,120L751.219,120L757.134,120L763.049,120L768.964,120L774.879,120L780.793,120L786.708,120L792.623,120L798.538,120L804.453,120L810.368,120L816.283,120L822.198,120L828.113,120L834.028,120L839.943,120L845.858,120L851.772,120L857.687,120L863.602,120L869.517,120L875.432,120L881.347,120L887.262,120L893.177,120L899.092,120L905.007,120L910.922,120L916.837,120L922.752,120L928.666,120L934.581,120L940.496,120L946.411,120L952.326,120L958.241,120L964.156,120L970.071,120L975.986,120L981.901,120L987.816,120L993.731,120L999.645,120L1005.56,120L1011.475,120L1017.39,120L1023.305,120L1029.22,120L1035.135,120L1041.05,120L1046.965,120L1052.88,120L1058.795,120L1064.71,120L1070.625,120L1076.539,120L1082.454,120L1088.369,120L1094.284,120L1100.199,120L1106.114,120L1112.029,120L1117.944,120L1123.859,120L1129.774,120L1135.689,120L1141.604,120L1147.518,120L1153.433,120L1159.348,120L1165.263,120L1171.178,120L1177.093,120L1183.008,119.935L1183.008,120L1177.093,120L1171.178,120L1165.263,120L1159.348,120L1153.433,120L1147.518,120L1141.604,120L1135.689,120L1129.774,120L1123.859,120L1117.944,120L1112.029,120L1106.114,120L1100.199,120L1094.284,120L1088.369,120L1082.454,120L1076.539,120L1070.625,120L1064.71,120L1058.795,120L1052.88,120L1046.965,120L1041.05,120L1035.135,120L1029.22,120L1023.305,120L1017.39,120L1011.475,120L1005.56,120L999.645,120L993.731,120L987.816,120L981.901,120L975.986,120L970.071,120L964.156,120L958.241,120L952.326,120L946.411,120L940.496,120L934.581,120L928.666,120L922.752,120L916.837,120L910.922,120L905.007,120L899.092,120L893.177,120L887.262,120L881.347,120L875.432,120L869.517,120L863.602,120L857.687,120L851.772,120L845.858,120L839.943,120L834.028,120L828.113,120L822.198,120L816.283,120L810.368,120L804.453,120L798.538,120L792.623,120L786.708,120L780.793,120L774.879,120L768.964,120L763.049,120L757.134,120L751.219,120L745.304,120L739.389,120L733.474,120L727.559,120L721.644,120L715.729,120L709.814,120L703.899,120L697.985,120L692.07,120L686.155,120L680.24,120L674.325,120L668.41,120L662.495,120L656.58,120L650.665,120L644.75,120L638.835,120L632.92,120L627.006,120L621.091,120L615.176,120L609.261,120L603.346,120L597.431,120L591.516,120L585.601,120L579.686,120L573.771,120L567.856,120L561.941,120L556.026,120L550.112,120L544.197,120L538.282,120L532.367,120L526.452,120L520.537,120L514.622,120L508.707,120L502.792,120L496.877,120L490.962,120L485.047,120L479.133,120L473.218,120L467.303,120L461.388,120L455.473,120L449.558,120L443.643,120L437.728,120L431.813,120L425.898,120L419.983,120L414.068,120L408.153,120L402.239,120L396.324,120L390.409,120L384.494,120L378.579,120L372.664,120L366.749,120L360.834,120L354.919,120L349.004,120L343.089,120L337.174,120L331.26,120L325.345,120L319.43,120L313.515,120L307.6,120L301.685,120L295.77,120L289.855,120L283.94,120L278.025,120L272.11,120L266.195,120L260.28,120L254.366,120L248.451,120L242.536,120L236.621,120L230.706,120L224.791,120L218.876,120L212.961,120L207.046,120L201.131,120L195.216,120L189.301,120L183.387,120L177.472,120L171.557,120L165.642,120L159.727,120L153.812,120L147.897,120L141.982,120L136.067,120L130.152,120L124.237,120L118.322,120L112.407,120L106.493,120L100.578,120L94.663,120L88.748,120L82.833,120L76.918,120L71.003,120L65.088,120L59.173,120L53.258,120L47.343,120L41.428,120L35.514,120L29.599,120L23.684,120L17.769,120L11.854,120L5.939,120L0.024,120Z" fill="#d95f02" opacity="0.5"/></g></g><path class="foreground" aria-hidden="true" d="" display="none"/></g><g transform="translate(0,0)"><path class="background" aria-hidden="true" d="M0,0h120v120h-120Z"/><g><g class="mark-area role-mark marks" role="graphics-object" aria-roledescription="area mark container"><path aria-label="FeePaid: 1; density: 0.000911973895531; survival_status: 0" role="graphics-symbol" aria-roledescription="area mark" d="M0.024,8.871L5.939,41.4L11.854,103.226L17.769,115.851L23.684,116.707L29.599,116.47L35.514,117.556L41.428,118.856L47.343,118.803L53.258,119.12L59.173,119.739L65.088,119.71L71.003,119.688L76.918,119.586L82.833,119.934L88.748,119.882L94.663,119.803L100.578,119.951L106.493,119.951L112.407,119.905L118.322,119.765L124.237,119.906L130.152,120L136.067,119.912L141.982,119.87L147.897,119.956L153.812,120L159.727,119.931L165.642,119.97L171.557,120L177.472,120L183.387,120L189.301,120L195.216,120L201.131,120L207.046,120L212.961,120L218.876,120L224.791,120L230.706,120L236.621,120L242.536,119.999L248.451,120L254.366,120L260.28,120L266.195,120L272.11,120L278.025,120L283.94,119.987L289.855,119.937L295.77,120L301.685,120L307.6,120L313.515,120L319.43,120L325.345,120L331.26,120L337.174,120L343.089,120L349.004,119.999L354.919,119.993L360.834,120L366.749,120L372.664,120L378.579,120L384.494,120L390.409,120L396.324,119.993L402.239,120L408.153,120L414.068,120L419.983,120L425.898,120L431.813,120L437.728,120L443.643,120L449.558,120L455.473,120L461.388,120L467.303,120L473.218,120L479.133,120L485.047,119.999L490.962,119.88L496.877,120L502.792,120L508.707,120L514.622,120L520.537,120L526.452,120L532.367,120L538.282,120L544.197,120L550.112,120L556.026,120L561.941,120L567.856,120L573.771,120L579.686,120L585.601,120L591.516,120L597.431,120L603.346,120L609.261,120L615.176,120L621.091,120L627.006,120L632.92,120L638.835,120L644.75,120L650.665,120L656.58,120L662.495,120L668.41,120L674.325,120L680.24,120L686.155,120L692.07,120L697.985,120L703.899,119.998L709.814,120L715.729,120L721.644,120L727.559,120L733.474,120L739.389,120L745.304,120L751.219,120L757.134,120L763.049,120L768.964,120L774.879,120L780.793,120L786.708,120L792.623,120L798.538,120L804.453,120L810.368,120L816.283,120L822.198,120L828.113,120L834.028,120L839.943,120L845.858,120L851.772,120L857.687,120L863.602,120L869.517,120L875.432,120L881.347,120L887.262,120L893.177,120L899.092,120L905.007,120L910.922,120L916.837,120L922.752,120L928.666,120L934.581,120L940.496,120L946.411,120L952.326,120L958.241,120L964.156,120L970.071,120L975.986,120L981.901,120L987.816,120L993.731,120L999.645,120L1005.56,120L1011.475,120L1017.39,120L1023.305,120L1029.22,120L1035.135,120L1041.05,120L1046.965,120L1052.88,120L1058.795,120L1064.71,120L1070.625,120L1076.539,120L1082.454,120L1088.369,120L1094.284,120L1100.199,120L1106.114,120L1112.029,120L1117.944,120L1123.859,120L1129.774,120L1135.689,120L1141.604,120L1147.518,120L1153.433,120L1159.348,120L1165.263,120L1171.178,120L1177.093,120L1183.008,119.935L1183.008,119.935L1177.093,120L1171.178,120L1165.263,120L1159.348,120L1153.433,120L1147.518,120L1141.604,120L1135.689,120L1129.774,120L1123.859,120L1117.944,120L1112.029,120L1106.114,120L1100.199,120L1094.284,120L1088.369,120L1082.454,120L1076.539,120L1070.625,120L1064.71,120L1058.795,120L1052.88,120L1046.965,120L1041.05,120L1035.135,120L1029.22,120L1023.305,120L1017.39,120L1011.475,120L1005.56,120L999.645,120L993.731,120L987.816,120L981.901,120L975.986,120L970.071,120L964.156,120L958.241,120L952.326,120L946.411,120L940.496,120L934.581,120L928.666,120L922.752,120L916.837,120L910.922,120L905.007,120L899.092,120L893.177,120L887.262,120L881.347,120L875.432,120L869.517,120L863.602,120L857.687,120L851.772,120L845.858,120L839.943,120L834.028,120L828.113,120L822.198,120L816.283,120L810.368,120L804.453,120L798.538,120L792.623,120L786.708,120L780.793,120L774.879,120L768.964,120L763.049,120L757.134,120L751.219,120L745.304,120L739.389,120L733.474,120L727.559,120L721.644,120L715.729,120L709.814,120L703.899,119.998L697.985,120L692.07,120L686.155,120L680.24,120L674.325,120L668.41,120L662.495,120L656.58,120L650.665,120L644.75,120L638.835,120L632.92,120L627.006,120L621.091,120L615.176,120L609.261,120L603.346,120L597.431,120L591.516,120L585.601,120L579.686,120L573.771,120L567.856,120L561.941,120L556.026,120L550.112,120L544.197,120L538.282,120L532.367,120L526.452,120L520.537,120L514.622,120L508.707,120L502.792,120L496.877,120L490.962,120L485.047,120L479.133,120L473.218,120L467.303,120L461.388,120L455.473,120L449.558,120L443.643,120L437.728,120L431.813,120L425.898,120L419.983,120L414.068,120L408.153,120L402.239,120L396.324,119.993L390.409,120L384.494,120L378.579,120L372.664,120L366.749,120L360.834,120L354.919,120L349.004,119.999L343.089,120L337.174,120L331.26,120L325.345,120L319.43,120L313.515,120L307.6,120L301.685,120L295.77,120L289.855,119.937L283.94,119.987L278.025,120L272.11,120L266.195,120L260.28,120L254.366,120L248.451,120L242.536,120L236.621,120L230.706,120L224.791,120L218.876,120L212.961,120L207.046,120L201.131,120L195.216,120L189.301,120L183.387,120L177.472,120L171.557,120L165.642,119.97L159.727,119.931L153.812,120L147.897,119.956L141.982,120L136.067,119.912L130.152,120L124.237,119.906L118.322,119.765L112.407,119.924L106.493,119.951L100.578,119.951L94.663,119.933L88.748,119.882L82.833,119.942L76.918,119.756L71.003,119.688L65.088,119.818L59.173,119.784L53.258,119.493L47.343,119.022L41.428,119.144L35.514,118.071L29.599,117.397L23.684,117.904L17.769,117.809L11.854,110.211L5.939,83.67L0.024,58.615Z" fill="#1b9e77" opacity="0.5"/></g></g><path class="foreground" aria-hidden="true" d="" display="none"/></g></g><g class="mark-group role-legend" role="graphics-symbol" aria-roledescription="legend" aria-label="Symbol legend titled 'survival_status' for fill color with 2 values: 0, 1"><g transform="translate(1202,0)"><path class="background" aria-hidden="true" d="M0,0h81v40h-81Z" pointer-events="none"/><g><g class="mark-group role-legend-entry"><g transform="translate(0,16)"><path class="background" aria-hidden="true" d="M0,0h0v0h0Z" pointer-events="none"/><g><g class="mark-group role-scope" role="graphics-object" aria-roledescription="group mark container"><g transform="translate(0,0)"><path class="background" aria-hidden="true" d="M0,0h21.5615234375v11h-21.5615234375Z" pointer-events="none" opacity="1"/><g><g class="mark-symbol role-legend-symbol" pointer-events="none"><path transform="translate(6,6)" d="M5,0A5,5,0,1,1,-5,0A5,5,0,1,1,5,0" fill="#1b9e77" stroke-width="1.5" opacity="0.5"/></g><g class="mark-text role-legend-label" pointer-events="none"><text text-anchor="start" transform="translate(16,9)" font-family="sans-serif" font-size="10px" fill="#000" opacity="1">0</text></g></g><path class="foreground" aria-hidden="true" d="" pointer-events="none" display="none"/></g><g transform="translate(0,13)"><path class="background" aria-hidden="true" d="M0,0h21.5615234375v11h-21.5615234375Z" pointer-events="none" opacity="1"/><g><g class="mark-symbol role-legend-symbol" pointer-events="none"><path transform="translate(6,6)" d="M5,0A5,5,0,1,1,-5,0A5,5,0,1,1,5,0" fill="#d95f02" stroke-width="1.5" opacity="0.5"/></g><g class="mark-text role-legend-label" pointer-events="none"><text text-anchor="start" transform="translate(16,9)" font-family="sans-serif" font-size="10px" fill="#000" opacity="1">1</text></g></g><path class="foreground" aria-hidden="true" d="" pointer-events="none" display="none"/></g></g></g><path class="foreground" aria-hidden="true" d="" pointer-events="none" display="none"/></g></g><g class="mark-text role-legend-title" pointer-events="none"><text text-anchor="start" transform="translate(0,9)" font-family="sans-serif" font-size="11px" font-weight="bold" fill="#000" opacity="1">survival_status</text></g></g><path class="foreground" aria-hidden="true" d="" pointer-events="none" display="none"/></g></g></g><path class="foreground" aria-hidden="true" d="" display="none"/></g></g></g></svg>