<svg xmlns="http://www.w3.org/2000/svg" xmlns:xlink="http://www.w3.org/1999/xlink" version="1.1" class="marks" width="639" height="343" viewBox="0 0 639 343"><rect width="639" height="343" fill="white"/><g fill="none" stroke-miterlimit="10" transform="translate(70,6)"><g class="mark-group role-frame root" role="graphics-object" aria-roledescription="group mark container"><g transform="translate(0,0)"><path class="background" aria-hidden="true" d="M0,0h0v0h0Z"/><g><g class="mark-group role-scope concat_0_group" role="graphics-object" aria-roledescription="group mark container"><g transform="translate(0,0)"><path class="background" aria-hidden="true" d="M0,0h0v0h0Z"/><g><g class="mark-group role-scope concat_0_concat_0_group" role="graphics-object" aria-roledescription="group mark container"><g transform="translate(0,0)"><path class="background" aria-hidden="true" d="M0.5,0.5h180v120h-180Z" stroke="#ddd"/><g><g class="mark-group role-axis" aria-hidden="true"><g transform="translate(0.5,120.5)"><path class="background" aria-hidden="true" d="M0,0h0v0h0Z" pointer-events="none"/><g><g class="mark-rule role-axis-grid" pointer-events="none"><line transform="translate(0,-120)" x2="0" y2="120" stroke="#ddd" stroke-width="1" opacity="1"/><line transform="translate(45,-120)" x2="0" y2="120" stroke="#ddd" stroke-width="1" opacity="1"/><line transform="translate(90,-120)" x2="0" y2="120" stroke="#ddd" stroke-width="1" opacity="1"/><line transform="translate(135,-120)" x2="0" y2="120" stroke="#ddd" stroke-width="1" opacity="1"/><line transform="translate(180,-120)" x2="0" y2="120" stroke="#ddd" stroke-width="1" opacity="1"/></g></g><path class="foreground" aria-hidden="true" d="" pointer-events="none" display="none"/></g></g><g class="mark-group role-axis" aria-hidden="true"><g transform="translate(0.5,0.5)"><path class="background" aria-hidden="true" d="M0,0h0v0h0Z" pointer-events="none"/><g><g class="mark-rule role-axis-grid" pointer-events="none"><line transform="translate(0,120)" x2="180" y2="0" stroke="#ddd" stroke-width="1" opacity="1"/><line transform="translate(0,87)" x2="180" y2="0" stroke="#ddd" stroke-width="1" opacity="1"/><line transform="translate(0,53)" x2="180" y2="0" stroke="#ddd" stroke-width="1" opacity="1"/><line transform="translate(0,20)" x2="180" y2="0" stroke="#ddd" stroke-width="1" opacity="1"/></g></g><path class="foreground" aria-hidden="true" d="" pointer-events="none" display="none"/></g></g><g class="mark-group role-axis" role="graphics-symbol" aria-roledescription="axis" aria-label="X-axis titled 'GDPValue' for a linear scale with values from 1,700,000 to 2,100,000"><g transform="translate(0.5,120.5)"><path class="background" aria-hidden="true" d="M0,0h0v0h0Z" pointer-events="none"/><g><g class="mark-rule role-axis-tick" pointer-events="none"><line transform="translate(0,0)" x2="0" y2="5" stroke="#888" stroke-width="1" opacity="1"/><line transform="translate(45,0)" x2="0" y2="5" stroke="#888" stroke-width="1" opacity="1"/><line transform="translate(90,0)" x2="0" y2="5" stroke="#888" stroke-width="1" opacity="1"/><line transform="translate(135,0)" x2="0" y2="5" stroke="#888" stroke-width="1" opacity="1"/><line transform="translate(180,0)" x2="0" y2="5" stroke="#888" stroke-width="1" opacity="1"/></g><g class="mark-text role-axis-label" pointer-events="none"><text text-anchor="start" transform="translate(0,15)" font-family="sans-serif" font-size="10px" fill="#000" opacity="1">1,700,000</text><text text-anchor="middle" transform="translate(45,15)" font-family="sans-serif" font-size="10px" fill="#000" opacity="0">1,800,000</text><text text-anchor="middle" transform="translate(90,15)" font-family="sans-serif" font-size="10px" fill="#000" opacity="1">1,900,000</text><text text-anchor="middle" transform="translate(135,15)" font-family="sans-serif" font-size="10px" fill="#000" opacity="0">2,000,000</text><text text-anchor="end" transform="translate(180,15)" font-family="sans-serif" font-size="10px" fill="#000" opacity="1">2,100,000</text></g><g class="mark-rule role-axis-domain" pointer-events="none"><line transform="translate(0,0)" x2="180" y2="0" stroke="#888" stroke-width="1" opacity="1"/></g><g class="mark-text role-axis-title" pointer-events="none"><text text-anchor="middle" transform="translate(90,30)" font-family="sans-serif" font-size="11px" font-weight="bold" fill="#000" opacity="1">GDPValue</text></g></g><path class="foreground" aria-hidden="true" d="" pointer-events="none" display="none"/></g></g><g class="mark-group role-axis" role="graphics-symbol" aria-roledescription="axis" aria-label="Y-axis titled 'density' for a linear scale with values from 0.000000 to 0.000018"><g transform="translate(0.5,0.5)"><path class="background" aria-hidden="true" d="M0,0h0v0h0Z" pointer-events="none"/><g><g class="mark-rule role-axis-tick" pointer-events="none"><line transform="translate(0,120)" x2="-5" y2="0" stroke="#888" stroke-width="1" opacity="1"/><line transform="translate(0,87)" x2="-5" y2="0" stroke="#888" stroke-width="1" opacity="1"/><line transform="translate(0,53)" x2="-5" y2="0" stroke="#888" stroke-width="1" opacity="1"/><line transform="translate(0,20)" x2="-5" y2="0" stroke="#888" stroke-width="1" opacity="1"/></g><g class="mark-text role-axis-label" pointer-events="none"><text text-anchor="end" transform="translate(-7,123)" font-family="sans-serif" font-size="10px" fill="#000" opacity="1">0.000000</text><text text-anchor="end" transform="translate(-7,89.66666666666667)" font-family="sans-serif" font-size="10px" fill="#000" opacity="1">0.000005</text><text text-anchor="end" transform="translate(-7,56.33333333333333)" font-family="sans-serif" font-size="10px" fill="#000" opacity="1">0.000010</text><text text-anchor="end" transform="translate(-7,22.999999999999996)" font-family="sans-serif" font-size="10px" fill="#000" opacity="1">0.000015</text></g><g class="mark-rule role-axis-domain" pointer-events="none"><line transform="translate(0,120)" x2="0" y2="-120" stroke="#888" stroke-width="1" opacity="1"/></g><g class="mark-text role-axis-title" pointer-events="none"><text text-anchor="middle" transform="translate(-52.708984375,60) rotate(-90) translate(0,-2)" font-family="sans-serif" font-size="11px" font-weight="bold" fill="#000" opacity="1">density</text></g></g><path class="foreground" aria-hidden="true" d="" pointer-events="none" display="none"/></g></g><g class="mark-group role-scope concat_0_concat_0_pathgroup" role="graphics-object" aria-roledescription="group mark container"><g transform="translate(0,0)"><path class="background" aria-hidden="true" d="M0,0h180v120h-180Z"/><g><g class="mark-area role-mark concat_0_concat_0_marks" role="graphics-object" aria-roledescription="area mark container"><path aria-label="GDPValue: 1754172.83333; density: 0.0000037030405634; survival_status: 1" role="graphics-symbol" aria-roledescription="area mark" d="M24.378,95.313L25.075,95.688L25.773,96.777L26.471,98.486L27.168,100.669L27.866,103.154L28.563,105.761L29.261,108.326L29.958,110.717L30.656,112.838L31.354,114.636L32.051,116.096L32.749,117.228L33.446,118.063L34.144,118.638L34.841,118.99L35.539,119.148L36.237,119.126L36.934,118.931L37.632,118.551L38.329,117.971L39.027,117.169L39.725,116.127L40.422,114.835L41.12,113.305L41.817,111.566L42.515,109.674L43.212,107.709L43.91,105.763L44.608,103.934L45.305,102.312L46.003,100.964L46.7,99.926L47.398,99.2L48.095,98.755L48.793,98.536L49.491,98.481L50.188,98.527L50.886,98.631L51.583,98.766L52.281,98.926L52.979,99.112L53.676,99.325L54.374,99.553L55.071,99.762L55.769,99.902L56.466,99.91L57.164,99.73L57.862,99.324L58.559,98.695L59.257,97.89L59.954,97.006L60.652,96.177L61.349,95.554L62.047,95.283L62.745,95.481L63.442,96.214L64.14,97.49L64.837,99.255L65.535,101.406L66.233,103.805L66.93,106.301L67.628,108.751L68.325,111.036L69.023,113.068L69.72,114.8L70.418,116.215L71.116,117.326L71.813,118.165L72.511,118.772L73.208,119.191L73.906,119.459L74.603,119.604L75.301,119.641L75.999,119.567L76.696,119.363L77.394,118.983L78.091,118.357L78.789,117.387L79.487,115.947L80.184,113.884L80.882,111.03L81.579,107.218L82.277,102.301L82.974,96.185L83.672,88.861L84.37,80.432L85.067,71.136L85.765,61.348L86.462,51.574L87.16,42.405L87.858,34.469L88.555,28.358L89.253,24.554L89.95,23.371L90.648,24.909L91.345,29.043L92.043,35.434L92.741,43.583L93.438,52.888L94.136,62.72L94.833,72.491L95.531,81.711L96.228,90.016L96.926,97.187L97.624,103.138L98.321,107.892L99.019,111.552L99.716,114.271L100.414,116.218L101.112,117.558L101.809,118.434L102.507,118.963L103.204,119.224L103.902,119.262L104.599,119.09L105.297,118.685L105.995,117.996L106.692,116.946L107.39,115.438L108.087,113.369L108.785,110.64L109.482,107.182L110.18,102.973L110.878,98.062L111.575,92.585L112.273,86.772L112.97,80.939L113.668,75.465L114.366,70.752L115.063,67.18L115.761,65.052L116.458,64.557L117.156,65.736L117.853,68.477L118.551,72.531L119.249,77.543L119.946,83.098L120.644,88.77L121.341,94.165L122.039,98.947L122.736,102.855L123.434,105.709L124.132,107.396L124.829,107.861L125.527,107.099L126.224,105.148L126.922,102.09L127.62,98.061L128.317,93.259L129.015,87.951L129.712,82.464L130.41,77.176L131.107,72.485L131.805,68.769L132.503,66.346L133.2,65.432L133.898,66.116L134.595,68.342L135.293,71.925L135.99,76.571L136.688,81.92L137.386,87.593L138.083,93.233L138.781,98.545L139.478,103.312L140.176,107.403L140.874,110.774L141.571,113.443L142.269,115.479L142.966,116.975L143.664,118.037L144.361,118.764L145.059,119.244L145.757,119.552L146.454,119.742L147.152,119.855L147.849,119.92L148.547,119.954L149.245,119.969L149.942,119.971L150.64,119.961L151.337,119.938L152.035,119.898L152.732,119.832L153.43,119.731L154.128,119.58L154.825,119.366L155.523,119.071L156.22,118.68L156.918,118.18L157.615,117.566L158.313,116.844L159.011,116.031L159.708,115.158L160.406,114.272L161.103,113.427L161.801,112.685L162.499,112.104L163.196,111.733L163.894,111.606L163.894,120L163.196,120L162.499,120L161.801,120L161.103,120L160.406,120L159.708,120L159.011,120L158.313,120L157.615,120L156.918,120L156.22,120L155.523,120L154.825,120L154.128,120L153.43,120L152.732,120L152.035,120L151.337,120L150.64,120L149.942,120L149.245,120L148.547,120L147.849,120L147.152,120L146.454,120L145.757,120L145.059,120L144.361,120L143.664,120L142.966,120L142.269,120L141.571,120L140.874,120L140.176,120L139.478,120L138.781,120L138.083,120L137.386,120L136.688,120L135.99,120L135.293,120L134.595,120L133.898,120L133.2,120L132.503,120L131.805,120L131.107,120L130.41,120L129.712,120L129.015,120L128.317,120L127.62,120L126.922,120L126.224,120L125.527,120L124.829,120L124.132,120L123.434,120L122.736,120L122.039,120L121.341,120L120.644,120L119.946,120L119.249,120L118.551,120L117.853,120L117.156,120L116.458,120L115.761,120L115.063,120L114.366,120L113.668,120L112.97,120L112.273,120L111.575,120L110.878,120L110.18,120L109.482,120L108.785,120L108.087,120L107.39,120L106.692,120L105.995,120L105.297,120L104.599,120L103.902,120L103.204,120L102.507,120L101.809,120L101.112,120L100.414,120L99.716,120L99.019,120L98.321,120L97.624,120L96.926,120L96.228,120L95.531,120L94.833,120L94.136,120L93.438,120L92.741,120L92.043,120L91.345,120L90.648,120L89.95,120L89.253,120L88.555,120L87.858,120L87.16,120L86.462,120L85.765,120L85.067,120L84.37,120L83.672,120L82.974,120L82.277,120L81.579,120L80.882,120L80.184,120L79.487,120L78.789,120L78.091,120L77.394,120L76.696,120L75.999,120L75.301,120L74.603,120L73.906,120L73.208,120L72.511,120L71.813,120L71.116,120L70.418,120L69.72,120L69.023,120L68.325,120L67.628,120L66.93,120L66.233,120L65.535,120L64.837,120L64.14,120L63.442,120L62.745,120L62.047,120L61.349,120L60.652,120L59.954,120L59.257,120L58.559,120L57.862,120L57.164,120L56.466,120L55.769,120L55.071,120L54.374,120L53.676,120L52.979,120L52.281,120L51.583,120L50.886,120L50.188,120L49.491,120L48.793,120L48.095,120L47.398,120L46.7,120L46.003,120L45.305,120L44.608,120L43.91,120L43.212,120L42.515,120L41.817,120L41.12,120L40.422,120L39.725,120L39.027,120L38.329,120L37.632,120L36.934,120L36.237,120L35.539,120L34.841,120L34.144,120L33.446,120L32.749,120L32.051,120L31.354,120L30.656,120L29.958,120L29.261,120L28.563,120L27.866,120L27.168,120L26.471,120L25.773,120L25.075,120L24.378,120Z" fill="#d95f02" opacity="0.5"/></g></g><path class="foreground" aria-hidden="true" d="" display="none"/></g><g transform="translate(0,0)"><path class="background" aria-hidden="true" d="M0,0h180v120h-180Z"/><g><g class="mark-area role-mark concat_0_concat_0_marks" role="graphics-object" aria-roledescription="area mark container"><path aria-label="GDPValue: 1754172.83333; density: 0.00000694722184605; survival_status: 0" role="graphics-symbol" aria-roledescription="area mark" d="M24.378,48.998L25.075,49.534L25.773,51.184L26.471,53.832L27.168,57.304L27.866,61.385L28.563,65.847L29.261,70.473L29.958,75.069L30.656,79.481L31.354,83.594L32.051,87.335L32.749,90.66L33.446,93.552L34.144,96.007L34.841,98.027L35.539,99.615L36.237,100.771L36.934,101.49L37.632,101.764L38.329,101.58L39.027,100.932L39.725,99.82L40.422,98.258L41.12,96.283L41.817,93.955L42.515,91.359L43.212,88.606L43.91,85.818L44.608,83.121L45.305,80.633L46.003,78.443L46.7,76.61L47.398,75.153L48.095,74.054L48.793,73.271L49.491,72.747L50.188,72.426L50.886,72.264L51.583,72.236L52.281,72.331L52.979,72.549L53.676,72.884L54.374,73.318L55.071,73.814L55.769,74.315L56.466,74.754L57.164,75.068L57.862,75.218L58.559,75.202L59.257,75.066L59.954,74.903L60.652,74.844L61.349,75.038L62.047,75.627L62.745,76.726L63.442,78.394L64.14,80.635L64.837,83.387L65.535,86.538L66.233,89.941L66.93,93.435L67.628,96.867L68.325,100.103L69.023,103.047L69.72,105.637L70.418,107.844L71.116,109.671L71.813,111.137L72.511,112.273L73.208,113.114L73.906,113.688L74.603,114.019L75.301,114.116L75.999,113.974L76.696,113.572L77.394,112.866L78.091,111.79L78.789,110.252L79.487,108.134L80.184,105.295L80.882,101.582L81.579,96.842L82.277,90.948L82.974,83.829L83.672,75.496L84.37,66.077L85.067,55.832L85.765,45.164L86.462,34.597L87.16,24.747L87.858,16.259L88.555,9.738L89.253,5.681L89.95,4.407L90.648,6.02L91.345,10.389L92.043,17.173L92.741,25.858L93.438,35.827L94.136,46.434L94.833,57.07L95.531,67.219L96.228,76.495L96.926,84.655L97.624,91.586L98.321,97.291L99.019,101.85L99.716,105.398L100.414,108.086L101.112,110.066L101.809,111.472L102.507,112.411L103.204,112.959L103.902,113.161L104.599,113.028L105.297,112.544L105.995,111.664L106.692,110.32L107.39,108.428L108.087,105.897L108.785,102.643L109.482,98.613L110.18,93.8L110.878,88.272L111.575,82.179L112.273,75.768L112.97,69.367L113.668,63.367L114.366,58.18L115.063,54.191L115.761,51.707L116.458,50.917L117.156,51.858L117.853,54.413L118.551,58.322L119.249,63.221L119.946,68.684L120.644,74.271L121.341,79.574L122.039,84.247L122.736,88.022L123.434,90.708L124.132,92.191L124.829,92.415L125.527,91.378L126.224,89.124L126.922,85.747L127.62,81.395L128.317,76.283L129.015,70.692L129.712,64.969L130.41,59.508L131.107,54.722L131.805,51.002L132.503,48.678L133.2,47.974L133.898,48.98L134.595,51.642L135.293,55.769L135.99,61.059L136.688,67.142L137.386,73.623L138.083,80.13L138.781,86.348L139.478,92.041L140.176,97.061L140.874,101.341L141.571,104.882L142.269,107.734L142.966,109.975L143.664,111.694L144.361,112.978L145.059,113.902L145.757,114.528L146.454,114.903L147.152,115.058L147.849,115.014L148.547,114.783L149.245,114.372L149.942,113.783L150.64,113.017L151.337,112.073L152.035,110.951L152.732,109.651L153.43,108.174L154.128,106.52L154.825,104.695L155.523,102.705L156.22,100.563L156.918,98.286L157.615,95.906L158.313,93.463L159.011,91.014L159.708,88.628L160.406,86.388L161.103,84.383L161.801,82.704L162.499,81.436L163.196,80.646L163.894,80.378L163.894,111.606L163.196,111.733L162.499,112.104L161.801,112.685L161.103,113.427L160.406,114.272L159.708,115.158L159.011,116.031L158.313,116.844L157.615,117.566L156.918,118.18L156.22,118.68L155.523,119.071L154.825,119.366L154.128,119.58L153.43,119.731L152.732,119.832L152.035,119.898L151.337,119.938L150.64,119.961L149.942,119.971L149.245,119.969L148.547,119.954L147.849,119.92L147.152,119.855L146.454,119.742L145.757,119.552L145.059,119.244L144.361,118.764L143.664,118.037L142.966,116.975L142.269,115.479L141.571,113.443L140.874,110.774L140.176,107.403L139.478,103.312L138.781,98.545L138.083,93.233L137.386,87.593L136.688,81.92L135.99,76.571L135.293,71.925L134.595,68.342L133.898,66.116L133.2,65.432L132.503,66.346L131.805,68.769L131.107,72.485L130.41,77.176L129.712,82.464L129.015,87.951L128.317,93.259L127.62,98.061L126.922,102.09L126.224,105.148L125.527,107.099L124.829,107.861L124.132,107.396L123.434,105.709L122.736,102.855L122.039,98.947L121.341,94.165L120.644,88.77L119.946,83.098L119.249,77.543L118.551,72.531L117.853,68.477L117.156,65.736L116.458,64.557L115.761,65.052L115.063,67.18L114.366,70.752L113.668,75.465L112.97,80.939L112.273,86.772L111.575,92.585L110.878,98.062L110.18,102.973L109.482,107.182L108.785,110.64L108.087,113.369L107.39,115.438L106.692,116.946L105.995,117.996L105.297,118.685L104.599,119.09L103.902,119.262L103.204,119.224L102.507,118.963L101.809,118.434L101.112,117.558L100.414,116.218L99.716,114.271L99.019,111.552L98.321,107.892L97.624,103.138L96.926,97.187L96.228,90.016L95.531,81.711L94.833,72.491L94.136,62.72L93.438,52.888L92.741,43.583L92.043,35.434L91.345,29.043L90.648,24.909L89.95,23.371L89.253,24.554L88.555,28.358L87.858,34.469L87.16,42.405L86.462,51.574L85.765,61.348L85.067,71.136L84.37,80.432L83.672,88.861L82.974,96.185L82.277,102.301L81.579,107.218L80.882,111.03L80.184,113.884L79.487,115.947L78.789,117.387L78.091,118.357L77.394,118.983L76.696,119.363L75.999,119.567L75.301,119.641L74.603,119.604L73.906,119.459L73.208,119.191L72.511,118.772L71.813,118.165L71.116,117.326L70.418,116.215L69.72,114.8L69.023,113.068L68.325,111.036L67.628,108.751L66.93,106.301L66.233,103.805L65.535,101.406L64.837,99.255L64.14,97.49L63.442,96.214L62.745,95.481L62.047,95.283L61.349,95.554L60.652,96.177L59.954,97.006L59.257,97.89L58.559,98.695L57.862,99.324L57.164,99.73L56.466,99.91L55.769,99.902L55.071,99.762L54.374,99.553L53.676,99.325L52.979,99.112L52.281,98.926L51.583,98.766L50.886,98.631L50.188,98.527L49.491,98.481L48.793,98.536L48.095,98.755L47.398,99.2L46.7,99.926L46.003,100.964L45.305,102.312L44.608,103.934L43.91,105.763L43.212,107.709L42.515,109.674L41.817,111.566L41.12,113.305L40.422,114.835L39.725,116.127L39.027,117.169L38.329,117.971L37.632,118.551L36.934,118.931L36.237,119.126L35.539,119.148L34.841,118.99L34.144,118.638L33.446,118.063L32.749,117.228L32.051,116.096L31.354,114.636L30.656,112.838L29.958,110.717L29.261,108.326L28.563,105.761L27.866,103.154L27.168,100.669L26.471,98.486L25.773,96.777L25.075,95.688L24.378,95.313Z" fill="#1b9e77" opacity="0.5"/></g></g><path class="foreground" aria-hidden="true" d="" display="none"/></g></g></g><path class="foreground" aria-hidden="true" d="" display="none"/></g></g><g class="mark-group role-scope concat_0_concat_1_group" role="graphics-object" aria-roledescription="group mark container"><g transform="translate(231,0)"><path class="background" aria-hidden="true" d="M0.5,0.5h180v120h-180Z" stroke="#ddd"/><g><g class="mark-group role-axis" aria-hidden="true"><g transform="translate(0.5,120.5)"><path class="background" aria-hidden="true" d="M0,0h0v0h0Z" pointer-events="none"/><g><g class="mark-rule role-axis-grid" pointer-events="none"><line transform="translate(0,-120)" x2="0" y2="120" stroke="#ddd" stroke-width="1" opacity="1"/><line transform="translate(40,-120)" x2="0" y2="120" stroke="#ddd" stroke-width="1" opacity="1"/><line transform="translate(80,-120)" x2="0" y2="120" stroke="#ddd" stroke-width="1" opacity="1"/><line transform="translate(120,-120)" x2="0" y2="120" stroke="#ddd" stroke-width="1" opacity="1"/><line transform="translate(160,-120)" x2="0" y2="120" stroke="#ddd" stroke-width="1" opacity="1"/></g></g><path class="foreground" aria-hidden="true" d="" pointer-events="none" display="none"/></g></g><g class="mark-group role-axis" aria-hidden="true"><g transform="translate(0.5,0.5)"><path class="background" aria-hidden="true" d="M0,0h0v0h0Z" pointer-events="none"/><g><g class="mark-rule role-axis-grid" pointer-events="none"><line transform="translate(0,120)" x2="180" y2="0" stroke="#ddd" stroke-width="1" opacity="1"/><line transform="translate(0,86)" x2="180" y2="0" stroke="#ddd" stroke-width="1" opacity="1"/><line transform="translate(0,51)" x2="180" y2="0" stroke="#ddd" stroke-width="1" opacity="1"/><line transform="translate(0,17)" x2="180" y2="0" stroke="#ddd" stroke-width="1" opacity="1"/></g></g><path class="foreground" aria-hidden="true" d="" pointer-events="none" display="none"/></g></g><g class="mark-group role-axis" role="graphics-symbol" aria-roledescription="axis" aria-label="X-axis titled 'ConsumerPriceValue' for a linear scale with values from 1 to 6"><g transform="translate(0.5,120.5)"><path class="background" aria-hidden="true" d="M0,0h0v0h0Z" pointer-events="none"/><g><g class="mark-rule role-axis-tick" pointer-events="none"><line transform="translate(0,0)" x2="0" y2="5" stroke="#888" stroke-width="1" opacity="1"/><line transform="translate(40,0)" x2="0" y2="5" stroke="#888" stroke-width="1" opacity="1"/><line transform="translate(80,0)" x2="0" y2="5" stroke="#888" stroke-width="1" opacity="1"/><line transform="translate(120,0)" x2="0" y2="5" stroke="#888" stroke-width="1" opacity="1"/><line transform="translate(160,0)" x2="0" y2="5" stroke="#888" stroke-width="1" opacity="1"/></g><g class="mark-text role-axis-label" pointer-events="none"><text text-anchor="start" transform="translate(0,15)" font-family="sans-serif" font-size="10px" fill="#000" opacity="1">1</text><text text-anchor="middle" transform="translate(40,15)" font-family="sans-serif" font-size="10px" fill="#000" opacity="1">2</text><text text-anchor="middle" transform="translate(80,15)" font-family="sans-serif" font-size="10px" fill="#000" opacity="1">3</text><text text-anchor="middle" transform="translate(120,15)" font-family="sans-serif" font-size="10px" fill="#000" opacity="1">4</text><text text-anchor="middle" transform="translate(160,15)" font-family="sans-serif" font-size="10px" fill="#000" opacity="1">5</text></g><g class="mark-rule role-axis-domain" pointer-events="none"><line transform="translate(0,0)" x2="180" y2="0" stroke="#888" stroke-width="1" opacity="1"/></g><g class="mark-text role-axis-title" pointer-events="none"><text text-anchor="middle" transform="translate(90,30)" font-family="sans-serif" font-size="11px" font-weight="bold" fill="#000" opacity="1">ConsumerPriceValue</text></g></g><path class="foreground" aria-hidden="true" d="" pointer-events="none" display="none"/></g></g><g class="mark-group role-axis" role="graphics-symbol" aria-roledescription="axis" aria-label="Y-axis titled 'density' for a linear scale with values from 0.0 to 3.5"><g transform="translate(0.5,0.5)"><path class="background" aria-hidden="true" d="M0,0h0v0h0Z" pointer-events="none"/><g><g class="mark-rule role-axis-tick" pointer-events="none"><line transform="translate(0,120)" x2="-5" y2="0" stroke="#888" stroke-width="1" opacity="1"/><line transform="translate(0,86)" x2="-5" y2="0" stroke="#888" stroke-width="1" opacity="1"/><line transform="translate(0,51)" x2="-5" y2="0" stroke="#888" stroke-width="1" opacity="1"/><line transform="translate(0,17)" x2="-5" y2="0" stroke="#888" stroke-width="1" opacity="1"/></g><g class="mark-text role-axis-label" pointer-events="none"><text text-anchor="end" transform="translate(-7,123)" font-family="sans-serif" font-size="10px" fill="#000" opacity="1">0</text><text text-anchor="end" transform="translate(-7,88.71428571428572)" font-family="sans-serif" font-size="10px" fill="#000" opacity="1">1</text><text text-anchor="end" transform="translate(-7,54.42857142857143)" font-family="sans-serif" font-size="10px" fill="#000" opacity="1">2</text><text text-anchor="end" transform="translate(-7,20.14285714285715)" font-family="sans-serif" font-size="10px" fill="#000" opacity="1">3</text></g><g class="mark-rule role-axis-domain" pointer-events="none"><line transform="translate(0,120)" x2="0" y2="-120" stroke="#888" stroke-width="1" opacity="1"/></g><g class="mark-text role-axis-title" pointer-events="none"><text text-anchor="middle" transform="translate(-16.5615234375,60) rotate(-90) translate(0,-2)" font-family="sans-serif" font-size="11px" font-weight="bold" fill="#000" opacity="1">density</text></g></g><path class="foreground" aria-hidden="true" d="" pointer-events="none" display="none"/></g></g><g class="mark-group role-scope concat_0_concat_1_pathgroup" role="graphics-object" aria-roledescription="group mark container"><g transform="translate(0,0)"><path class="background" aria-hidden="true" d="M0,0h180v120h-180Z"/><g><g class="mark-area role-mark concat_0_concat_1_marks" role="graphics-object" aria-roledescription="area mark container"><path aria-label="ConsumerPriceValue: 1.23333333333; density: 1.79497739364; survival_status: 1" role="graphics-symbol" aria-roledescription="area mark" d="M9.333,58.458L10.16,57.832L10.987,64.808L11.813,76.841L12.64,90.182L13.467,101.618L14.293,109.431L15.12,113.341L15.947,113.924L16.773,112.147L17.6,109.211L18.427,106.446L19.253,104.934L20.08,104.918L20.907,105.462L21.733,104.783L22.56,101.214L23.387,94.314L24.213,85.392L25.04,76.963L25.867,71.285L26.693,68.971L27.52,68.716L28.347,68.365L29.173,66.515L30,63.58L30.827,61.606L31.653,62.913L32.48,68.402L33.307,76.862L34.133,85.881L34.96,93.544L35.787,99.399L36.613,104.074L37.44,108.251L38.267,112.053L39.093,115.16L39.92,117.21L40.747,117.96L41.573,117.135L42.4,114.252L43.227,108.781L44.053,100.748L44.88,91.437L45.707,83.452L46.533,79.683L47.36,81.66L48.187,88.569L49.013,97.788L49.84,106.468L50.667,112.893L51.493,116.782L52.32,118.744L53.147,119.576L53.973,119.871L54.8,119.945L55.627,119.911L56.453,119.759L57.28,119.396L58.107,118.692L58.933,117.556L59.76,116.065L60.587,114.537L61.413,113.463L62.24,113.256L63.067,114.003L63.893,115.402L64.72,116.961L65.547,118.269L66.373,119.15L67.2,119.64L68.027,119.869L68.853,119.959L69.68,119.989L70.507,119.997L71.333,119.999L72.16,120L72.987,120L73.813,120L74.64,120L75.467,120L76.293,120L77.12,120L77.947,120L78.773,120L79.6,120L80.427,120L81.253,120L82.08,120L82.907,120L83.733,120L84.56,120L85.387,120L86.213,120L87.04,120L87.867,120L88.693,120L89.52,120L90.347,120L91.173,120L92,120L92.827,120L93.653,120L94.48,120L95.307,120L96.133,120L96.96,120L97.787,120L98.613,120L99.44,120L100.267,120L101.093,120L101.92,120L102.747,120L103.573,120L104.4,120L105.227,120L106.053,120L106.88,120L107.707,120L108.533,120L109.36,120L110.187,120L111.013,120L111.84,120L112.667,120L113.493,120L114.32,120L115.147,120L115.973,120L116.8,120L117.627,120L118.453,120L119.28,120L120.107,120L120.933,120L121.76,120L122.587,120L123.413,120L124.24,120L125.067,120L125.893,120L126.72,120L127.547,120L128.373,120L129.2,120L130.027,120L130.853,120L131.68,120L132.507,120L133.333,120L134.16,120L134.987,120L135.813,120L136.64,120L137.467,120L138.293,120L139.12,120L139.947,120L140.773,120L141.6,120L142.427,120L143.253,120L144.08,120L144.907,120L145.733,120L146.56,120L147.387,120L148.213,120L149.04,120L149.867,120L150.693,120L151.52,120L152.347,120L153.173,120L154,120L154.827,120L155.653,120L156.48,120L157.307,120L158.133,120L158.96,120L159.787,120L160.613,120L161.44,120L162.267,120L163.093,120L163.92,120L164.747,120L165.573,119.999L166.4,119.996L167.227,119.983L168.053,119.938L168.88,119.812L169.707,119.507L170.533,118.884L171.36,117.824L172.187,116.341L173.013,114.698L173.84,113.375L174.667,112.865L174.667,120L173.84,120L173.013,120L172.187,120L171.36,120L170.533,120L169.707,120L168.88,120L168.053,120L167.227,120L166.4,120L165.573,120L164.747,120L163.92,120L163.093,120L162.267,120L161.44,120L160.613,120L159.787,120L158.96,120L158.133,120L157.307,120L156.48,120L155.653,120L154.827,120L154,120L153.173,120L152.347,120L151.52,120L150.693,120L149.867,120L149.04,120L148.213,120L147.387,120L146.56,120L145.733,120L144.907,120L144.08,120L143.253,120L142.427,120L141.6,120L140.773,120L139.947,120L139.12,120L138.293,120L137.467,120L136.64,120L135.813,120L134.987,120L134.16,120L133.333,120L132.507,120L131.68,120L130.853,120L130.027,120L129.2,120L128.373,120L127.547,120L126.72,120L125.893,120L125.067,120L124.24,120L123.413,120L122.587,120L121.76,120L120.933,120L120.107,120L119.28,120L118.453,120L117.627,120L116.8,120L115.973,120L115.147,120L114.32,120L113.493,120L112.667,120L111.84,120L111.013,120L110.187,120L109.36,120L108.533,120L107.707,120L106.88,120L106.053,120L105.227,120L104.4,120L103.573,120L102.747,120L101.92,120L101.093,120L100.267,120L99.44,120L98.613,120L97.787,120L96.96,120L96.133,120L95.307,120L94.48,120L93.653,120L92.827,120L92,120L91.173,120L90.347,120L89.52,120L88.693,120L87.867,120L87.04,120L86.213,120L85.387,120L84.56,120L83.733,120L82.907,120L82.08,120L81.253,120L80.427,120L79.6,120L78.773,120L77.947,120L77.12,120L76.293,120L75.467,120L74.64,120L73.813,120L72.987,120L72.16,120L71.333,120L70.507,120L69.68,120L68.853,120L68.027,120L67.2,120L66.373,120L65.547,120L64.72,120L63.893,120L63.067,120L62.24,120L61.413,120L60.587,120L59.76,120L58.933,120L58.107,120L57.28,120L56.453,120L55.627,120L54.8,120L53.973,120L53.147,120L52.32,120L51.493,120L50.667,120L49.84,120L49.013,120L48.187,120L47.36,120L46.533,120L45.707,120L44.88,120L44.053,120L43.227,120L42.4,120L41.573,120L40.747,120L39.92,120L39.093,120L38.267,120L37.44,120L36.613,120L35.787,120L34.96,120L34.133,120L33.307,120L32.48,120L31.653,120L30.827,120L30,120L29.173,120L28.347,120L27.52,120L26.693,120L25.867,120L25.04,120L24.213,120L23.387,120L22.56,120L21.733,120L20.907,120L20.08,120L19.253,120L18.427,120L17.6,120L16.773,120L15.947,120L15.12,120L14.293,120L13.467,120L12.64,120L11.813,120L10.987,120L10.16,120L9.333,120Z" fill="#d95f02" opacity="0.5"/></g></g><path class="foreground" aria-hidden="true" d="" display="none"/></g><g transform="translate(0,0)"><path class="background" aria-hidden="true" d="M0,0h180v120h-180Z"/><g><g class="mark-area role-mark concat_0_concat_1_marks" role="graphics-object" aria-roledescription="area mark container"><path aria-label="ConsumerPriceValue: 1.23333333333; density: 1.39993276853; survival_status: 0" role="graphics-symbol" aria-roledescription="area mark" d="M9.333,10.46L10.16,6.845L10.987,13.033L11.813,26.479L12.64,43.099L13.467,59.087L14.293,72.015L15.12,80.929L15.947,85.899L16.773,87.622L17.6,87.257L18.427,86.261L19.253,85.914L20.08,86.646L20.907,87.64L21.733,87.146L22.56,83.471L23.387,76.127L24.213,66.406L25.04,56.856L25.867,49.83L26.693,46.082L27.52,44.467L28.347,42.979L29.173,40.336L30,37.021L30.827,35.106L31.653,36.896L32.48,43.257L33.307,52.934L34.133,63.472L34.96,72.909L35.787,80.744L36.613,87.533L37.44,93.857L38.267,99.711L39.093,104.633L39.92,108.121L40.747,109.828L41.573,109.434L42.4,106.486L43.227,100.561L44.053,91.856L44.88,81.857L45.707,73.368L46.533,69.435L47.36,71.672L48.187,79.268L49.013,89.526L49.84,99.47L50.667,107.234L51.493,112.395L52.32,115.447L53.147,117.115L53.973,117.955L54.8,118.279L55.627,118.217L56.453,117.794L57.28,116.967L58.107,115.67L58.933,113.89L59.76,111.79L60.587,109.777L61.413,108.412L62.24,108.154L63.067,109.099L63.893,110.918L64.72,113.061L65.547,115.041L66.373,116.608L67.2,117.737L68.027,118.513L68.853,119.04L69.68,119.396L70.507,119.634L71.333,119.788L72.16,119.882L72.987,119.938L73.813,119.969L74.64,119.985L75.467,119.993L76.293,119.997L77.12,119.999L77.947,120L78.773,120L79.6,120L80.427,120L81.253,120L82.08,120L82.907,120L83.733,120L84.56,120L85.387,120L86.213,120L87.04,120L87.867,120L88.693,120L89.52,120L90.347,120L91.173,120L92,120L92.827,120L93.653,120L94.48,120L95.307,120L96.133,120L96.96,120L97.787,120L98.613,120L99.44,120L100.267,120L101.093,120L101.92,120L102.747,120L103.573,120L104.4,120L105.227,120L106.053,120L106.88,120L107.707,120L108.533,120L109.36,120L110.187,120L111.013,120L111.84,120L112.667,120L113.493,120L114.32,120L115.147,120L115.973,120L116.8,120L117.627,120L118.453,120L119.28,120L120.107,120L120.933,120L121.76,120L122.587,120L123.413,120L124.24,120L125.067,120L125.893,120L126.72,120L127.547,120L128.373,120L129.2,120L130.027,120L130.853,120L131.68,120L132.507,120L133.333,120L134.16,120L134.987,120L135.813,120L136.64,120L137.467,120L138.293,120L139.12,120L139.947,120L140.773,120L141.6,120L142.427,120L143.253,120L144.08,120L144.907,120L145.733,120L146.56,120L147.387,120L148.213,120L149.04,120L149.867,120L150.693,120L151.52,120L152.347,120L153.173,120L154,120L154.827,120L155.653,120L156.48,120L157.307,120L158.133,119.999L158.96,119.997L159.787,119.991L160.613,119.979L161.44,119.953L162.267,119.898L163.093,119.789L163.92,119.585L164.747,119.225L165.573,118.624L166.4,117.672L167.227,116.248L168.053,114.229L168.88,111.509L169.707,108.02L170.533,103.766L171.36,98.897L172.187,93.799L173.013,89.158L173.84,85.849L174.667,84.642L174.667,112.865L173.84,113.375L173.013,114.698L172.187,116.341L171.36,117.824L170.533,118.884L169.707,119.507L168.88,119.812L168.053,119.938L167.227,119.983L166.4,119.996L165.573,119.999L164.747,120L163.92,120L163.093,120L162.267,120L161.44,120L160.613,120L159.787,120L158.96,120L158.133,120L157.307,120L156.48,120L155.653,120L154.827,120L154,120L153.173,120L152.347,120L151.52,120L150.693,120L149.867,120L149.04,120L148.213,120L147.387,120L146.56,120L145.733,120L144.907,120L144.08,120L143.253,120L142.427,120L141.6,120L140.773,120L139.947,120L139.12,120L138.293,120L137.467,120L136.64,120L135.813,120L134.987,120L134.16,120L133.333,120L132.507,120L131.68,120L130.853,120L130.027,120L129.2,120L128.373,120L127.547,120L126.72,120L125.893,120L125.067,120L124.24,120L123.413,120L122.587,120L121.76,120L120.933,120L120.107,120L119.28,120L118.453,120L117.627,120L116.8,120L115.973,120L115.147,120L114.32,120L113.493,120L112.667,120L111.84,120L111.013,120L110.187,120L109.36,120L108.533,120L107.707,120L106.88,120L106.053,120L105.227,120L104.4,120L103.573,120L102.747,120L101.92,120L101.093,120L100.267,120L99.44,120L98.613,120L97.787,120L96.96,120L96.133,120L95.307,120L94.48,120L93.653,120L92.827,120L92,120L91.173,120L90.347,120L89.52,120L88.693,120L87.867,120L87.04,120L86.213,120L85.387,120L84.56,120L83.733,120L82.907,120L82.08,120L81.253,120L80.427,120L79.6,120L78.773,120L77.947,120L77.12,120L76.293,120L75.467,120L74.64,120L73.813,120L72.987,120L72.16,120L71.333,119.999L70.507,119.997L69.68,119.989L68.853,119.959L68.027,119.869L67.2,119.64L66.373,119.15L65.547,118.269L64.72,116.961L63.893,115.402L63.067,114.003L62.24,113.256L61.413,113.463L60.587,114.537L59.76,116.065L58.933,117.556L58.107,118.692L57.28,119.396L56.453,119.759L55.627,119.911L54.8,119.945L53.973,119.871L53.147,119.576L52.32,118.744L51.493,116.782L50.667,112.893L49.84,106.468L49.013,97.788L48.187,88.569L47.36,81.66L46.533,79.683L45.707,83.452L44.88,91.437L44.053,100.748L43.227,108.781L42.4,114.252L41.573,117.135L40.747,117.96L39.92,117.21L39.093,115.16L38.267,112.053L37.44,108.251L36.613,104.074L35.787,99.399L34.96,93.544L34.133,85.881L33.307,76.862L32.48,68.402L31.653,62.913L30.827,61.606L30,63.58L29.173,66.515L28.347,68.365L27.52,68.716L26.693,68.971L25.867,71.285L25.04,76.963L24.213,85.392L23.387,94.314L22.56,101.214L21.733,104.783L20.907,105.462L20.08,104.918L19.253,104.934L18.427,106.446L17.6,109.211L16.773,112.147L15.947,113.924L15.12,113.341L14.293,109.431L13.467,101.618L12.64,90.182L11.813,76.841L10.987,64.808L10.16,57.832L9.333,58.458Z" fill="#1b9e77" opacity="0.5"/></g></g><path class="foreground" aria-hidden="true" d="" display="none"/></g></g></g><path class="foreground" aria-hidden="true" d="" display="none"/></g></g></g><path class="foreground" aria-hidden="true" d="" display="none"/></g></g><g class="mark-group role-scope concat_1_group" role="graphics-object" aria-roledescription="group mark container"><g transform="translate(0,179)"><path class="background" aria-hidden="true" d="M0,0h0v0h0Z"/><g><g class="mark-group role-scope concat_1_concat_0_group" role="graphics-object" aria-roledescription="group mark container"><g transform="translate(0,0)"><path class="background" aria-hidden="true" d="M0.5,0.5h180v120h-180Z" stroke="#ddd"/><g><g class="mark-group role-axis" aria-hidden="true"><g transform="translate(0.5,120.5)"><path class="background" aria-hidden="true" d="M0,0h0v0h0Z" pointer-events="none"/><g><g class="mark-rule role-axis-grid" pointer-events="none"><line transform="translate(0,-120)" x2="0" y2="120" stroke="#ddd" stroke-width="1" opacity="1"/><line transform="translate(40,-120)" x2="0" y2="120" stroke="#ddd" stroke-width="1" opacity="1"/><line transform="translate(80,-120)" x2="0" y2="120" stroke="#ddd" stroke-width="1" opacity="1"/><line transform="translate(120,-120)" x2="0" y2="120" stroke="#ddd" stroke-width="1" opacity="1"/><line transform="translate(160,-120)" x2="0" y2="120" stroke="#ddd" stroke-width="1" opacity="1"/></g></g><path class="foreground" aria-hidden="true" d="" pointer-events="none" display="none"/></g></g><g class="mark-group role-axis" aria-hidden="true"><g transform="translate(0.5,0.5)"><path class="background" aria-hidden="true" d="M0,0h0v0h0Z" pointer-events="none"/><g><g class="mark-rule role-axis-grid" pointer-events="none"><line transform="translate(0,120)" x2="180" y2="0" stroke="#ddd" stroke-width="1" opacity="1"/><line transform="translate(0,93)" x2="180" y2="0" stroke="#ddd" stroke-width="1" opacity="1"/><line transform="translate(0,67)" x2="180" y2="0" stroke="#ddd" stroke-width="1" opacity="1"/><line transform="translate(0,40)" x2="180" y2="0" stroke="#ddd" stroke-width="1" opacity="1"/><line transform="translate(0,13)" x2="180" y2="0" stroke="#ddd" stroke-width="1" opacity="1"/></g></g><path class="foreground" aria-hidden="true" d="" pointer-events="none" display="none"/></g></g><g class="mark-group role-axis" role="graphics-symbol" aria-roledescription="axis" aria-label="X-axis titled 'EmploymentValue' for a linear scale with values from 2,300 to 2,750"><g transform="translate(0.5,120.5)"><path class="background" aria-hidden="true" d="M0,0h0v0h0Z" pointer-events="none"/><g><g class="mark-rule role-axis-tick" pointer-events="none"><line transform="translate(0,0)" x2="0" y2="5" stroke="#888" stroke-width="1" opacity="1"/><line transform="translate(40,0)" x2="0" y2="5" stroke="#888" stroke-width="1" opacity="1"/><line transform="translate(80,0)" x2="0" y2="5" stroke="#888" stroke-width="1" opacity="1"/><line transform="translate(120,0)" x2="0" y2="5" stroke="#888" stroke-width="1" opacity="1"/><line transform="translate(160,0)" x2="0" y2="5" stroke="#888" stroke-width="1" opacity="1"/></g><g class="mark-text role-axis-label" pointer-events="none"><text text-anchor="start" transform="translate(0,15)" font-family="sans-serif" font-size="10px" fill="#000" opacity="1">2,300</text><text text-anchor="middle" transform="translate(40,15)" font-family="sans-serif" font-size="10px" fill="#000" opacity="1">2,400</text><text text-anchor="middle" transform="translate(80,15)" font-family="sans-serif" font-size="10px" fill="#000" opacity="1">2,500</text><text text-anchor="middle" transform="translate(120,15)" font-family="sans-serif" font-size="10px" fill="#000" opacity="1">2,600</text><text text-anchor="middle" transform="translate(160,15)" font-family="sans-serif" font-size="10px" fill="#000" opacity="1">2,700</text></g><g class="mark-rule role-axis-domain" pointer-events="none"><line transform="translate(0,0)" x2="180" y2="0" stroke="#888" stroke-width="1" opacity="1"/></g><g class="mark-text role-axis-title" pointer-events="none"><text text-anchor="middle" transform="translate(90,30)" font-family="sans-serif" font-size="11px" font-weight="bold" fill="#000" opacity="1">EmploymentValue</text></g></g><path class="foreground" aria-hidden="true" d="" pointer-events="none" display="none"/></g></g><g class="mark-group role-axis" role="graphics-symbol" aria-roledescription="axis" aria-label="Y-axis titled 'density' for a linear scale with values from 0.000 to 0.009"><g transform="translate(0.5,0.5)"><path class="background" aria-hidden="true" d="M0,0h0v0h0Z" pointer-events="none"/><g><g class="mark-rule role-axis-tick" pointer-events="none"><line transform="translate(0,120)" x2="-5" y2="0" stroke="#888" stroke-width="1" opacity="1"/><line transform="translate(0,93)" x2="-5" y2="0" stroke="#888" stroke-width="1" opacity="1"/><line transform="translate(0,67)" x2="-5" y2="0" stroke="#888" stroke-width="1" opacity="1"/><line transform="translate(0,40)" x2="-5" y2="0" stroke="#888" stroke-width="1" opacity="1"/><line transform="translate(0,13)" x2="-5" y2="0" stroke="#888" stroke-width="1" opacity="1"/></g><g class="mark-text role-axis-label" pointer-events="none"><text text-anchor="end" transform="translate(-7,123)" font-family="sans-serif" font-size="10px" fill="#000" opacity="1">0.000</text><text text-anchor="end" transform="translate(-7,96.33333333333333)" font-family="sans-serif" font-size="10px" fill="#000" opacity="1">0.002</text><text text-anchor="end" transform="translate(-7,69.66666666666667)" font-family="sans-serif" font-size="10px" fill="#000" opacity="1">0.004</text><text text-anchor="end" transform="translate(-7,42.99999999999999)" font-family="sans-serif" font-size="10px" fill="#000" opacity="1">0.006</text><text text-anchor="end" transform="translate(-7,16.333333333333325)" font-family="sans-serif" font-size="10px" fill="#000" opacity="1">0.008</text></g><g class="mark-rule role-axis-domain" pointer-events="none"><line transform="translate(0,120)" x2="0" y2="-120" stroke="#888" stroke-width="1" opacity="1"/></g><g class="mark-text role-axis-title" pointer-events="none"><text text-anchor="middle" transform="translate(-36.0244140625,60) rotate(-90) translate(0,-2)" font-family="sans-serif" font-size="11px" font-weight="bold" fill="#000" opacity="1">density</text></g></g><path class="foreground" aria-hidden="true" d="" pointer-events="none" display="none"/></g></g><g class="mark-group role-scope concat_1_concat_0_pathgroup" role="graphics-object" aria-roledescription="group mark container"><g transform="translate(0,0)"><path class="background" aria-hidden="true" d="M0,0h180v120h-180Z"/><g><g class="mark-area role-mark concat_1_concat_0_marks" role="graphics-object" aria-roledescription="area mark container"><path aria-label="EmploymentValue: 2320.475; density: 0.00286293143001; survival_status: 1" role="graphics-symbol" aria-roledescription="area mark" d="M8.19,81.828L9.046,81.663L9.901,82.338L10.757,83.645L11.612,85.318L12.468,87.071L13.323,88.654L14.179,89.888L15.034,90.697L15.89,91.112L16.745,91.257L17.601,91.32L18.456,91.509L19.312,92.013L20.167,92.963L21.023,94.413L21.879,96.327L22.734,98.59L23.59,101.027L24.445,103.431L25.301,105.591L26.156,107.319L27.012,108.467L27.867,108.946L28.723,108.732L29.578,107.863L30.434,106.445L31.289,104.637L32.145,102.637L33,100.669L33.856,98.956L34.712,97.698L35.567,97.044L36.423,97.083L37.278,97.827L38.134,99.215L38.989,101.129L39.845,103.407L40.7,105.87L41.556,108.349L42.411,110.696L43.267,112.805L44.122,114.613L44.978,116.093L45.833,117.256L46.689,118.132L47.545,118.766L48.4,119.203L49.256,119.489L50.111,119.658L50.967,119.733L51.822,119.724L52.678,119.629L53.533,119.428L54.389,119.088L55.244,118.558L56.1,117.778L56.955,116.676L57.811,115.181L58.666,113.234L59.522,110.801L60.378,107.888L61.233,104.557L62.089,100.933L62.944,97.202L63.8,93.603L64.655,90.399L65.511,87.848L66.366,86.165L67.222,85.49L68.077,85.857L68.933,87.184L69.788,89.277L70.644,91.846L71.499,94.535L72.355,96.958L73.211,98.732L74.066,99.52L74.922,99.053L75.777,97.168L76.633,93.821L77.488,89.11L78.344,83.279L79.199,76.715L80.055,69.919L80.91,63.468L81.766,57.954L82.621,53.91L83.477,51.749L84.332,51.701L85.188,53.786L86.044,57.813L86.899,63.406L87.755,70.066L88.61,77.23L89.466,84.337L90.321,90.882L91.177,96.451L92.032,100.726L92.888,103.485L93.743,104.584L94.599,103.946L95.454,101.554L96.31,97.456L97.165,91.783L98.021,84.769L98.877,76.771L99.732,68.27L100.588,59.856L101.443,52.179L102.299,45.886L103.154,41.542L104.01,39.551L104.865,40.097L105.721,43.116L106.576,48.299L107.432,55.136L108.287,62.981L109.143,71.129L109.998,78.891L110.854,85.654L111.71,90.918L112.565,94.317L113.421,95.625L114.276,94.751L115.132,91.74L115.987,86.776L116.843,80.183L117.698,72.425L118.554,64.094L119.409,55.872L120.265,48.479L121.12,42.603L121.976,38.812L122.831,37.49L123.687,38.78L124.543,42.571L125.398,48.516L126.254,56.091L127.109,64.67L127.965,73.61L128.82,82.329L129.676,90.366L130.531,97.402L131.387,103.27L132.242,107.929L133.098,111.433L133.953,113.889L134.809,115.42L135.664,116.136L136.52,116.112L137.376,115.374L138.231,113.908L139.087,111.657L139.942,108.544L140.798,104.494L141.653,99.457L142.509,93.44L143.364,86.533L144.22,78.932L145.075,70.949L145.931,63.002L146.786,55.588L147.642,49.24L148.497,44.465L149.353,41.676L150.209,41.138L151.064,42.922L151.92,46.893L152.775,52.729L153.631,59.96L154.486,68.036L155.342,76.396L156.197,84.532L157.053,92.037L157.908,98.634L158.764,104.181L159.619,108.651L160.475,112.109L161.33,114.68L162.186,116.517L163.042,117.775L163.897,118.593L164.753,119.087L165.608,119.341L166.464,119.412L167.319,119.33L168.175,119.105L169.03,118.732L169.886,118.2L170.741,117.493L171.597,116.604L172.452,115.539L173.308,114.324L174.163,113.005L175.019,111.651L175.875,110.351L176.73,109.201L177.586,108.297L178.441,107.718L179.297,107.519L179.297,120L178.441,120L177.586,120L176.73,120L175.875,120L175.019,120L174.163,120L173.308,120L172.452,120L171.597,120L170.741,120L169.886,120L169.03,120L168.175,120L167.319,120L166.464,120L165.608,120L164.753,120L163.897,120L163.042,120L162.186,120L161.33,120L160.475,120L159.619,120L158.764,120L157.908,120L157.053,120L156.197,120L155.342,120L154.486,120L153.631,120L152.775,120L151.92,120L151.064,120L150.209,120L149.353,120L148.497,120L147.642,120L146.786,120L145.931,120L145.075,120L144.22,120L143.364,120L142.509,120L141.653,120L140.798,120L139.942,120L139.087,120L138.231,120L137.376,120L136.52,120L135.664,120L134.809,120L133.953,120L133.098,120L132.242,120L131.387,120L130.531,120L129.676,120L128.82,120L127.965,120L127.109,120L126.254,120L125.398,120L124.543,120L123.687,120L122.831,120L121.976,120L121.12,120L120.265,120L119.409,120L118.554,120L117.698,120L116.843,120L115.987,120L115.132,120L114.276,120L113.421,120L112.565,120L111.71,120L110.854,120L109.998,120L109.143,120L108.287,120L107.432,120L106.576,120L105.721,120L104.865,120L104.01,120L103.154,120L102.299,120L101.443,120L100.588,120L99.732,120L98.877,120L98.021,120L97.165,120L96.31,120L95.454,120L94.599,120L93.743,120L92.888,120L92.032,120L91.177,120L90.321,120L89.466,120L88.61,120L87.755,120L86.899,120L86.044,120L85.188,120L84.332,120L83.477,120L82.621,120L81.766,120L80.91,120L80.055,120L79.199,120L78.344,120L77.488,120L76.633,120L75.777,120L74.922,120L74.066,120L73.211,120L72.355,120L71.499,120L70.644,120L69.788,120L68.933,120L68.077,120L67.222,120L66.366,120L65.511,120L64.655,120L63.8,120L62.944,120L62.089,120L61.233,120L60.378,120L59.522,120L58.666,120L57.811,120L56.955,120L56.1,120L55.244,120L54.389,120L53.533,120L52.678,120L51.822,120L50.967,120L50.111,120L49.256,120L48.4,120L47.545,120L46.689,120L45.833,120L44.978,120L44.122,120L43.267,120L42.411,120L41.556,120L40.7,120L39.845,120L38.989,120L38.134,120L37.278,120L36.423,120L35.567,120L34.712,120L33.856,120L33,120L32.145,120L31.289,120L30.434,120L29.578,120L28.723,120L27.867,120L27.012,120L26.156,120L25.301,120L24.445,120L23.59,120L22.734,120L21.879,120L21.023,120L20.167,120L19.312,120L18.456,120L17.601,120L16.745,120L15.89,120L15.034,120L14.179,120L13.323,120L12.468,120L11.612,120L10.757,120L9.901,120L9.046,120L8.19,120Z" fill="#d95f02" opacity="0.5"/></g></g><path class="foreground" aria-hidden="true" d="" display="none"/></g><g transform="translate(0,0)"><path class="background" aria-hidden="true" d="M0,0h180v120h-180Z"/><g><g class="mark-area role-mark concat_1_concat_0_marks" role="graphics-object" aria-roledescription="area mark container"><path aria-label="EmploymentValue: 2320.475; density: 0.00557701799951; survival_status: 0" role="graphics-symbol" aria-roledescription="area mark" d="M8.19,7.467L9.046,6.412L9.901,6.692L10.757,8.095L11.612,10.335L12.468,13.102L13.323,16.107L14.179,19.128L15.034,22.04L15.89,24.819L16.745,27.535L17.601,30.317L18.456,33.322L19.312,36.685L20.167,40.49L21.023,44.747L21.879,49.383L22.734,54.252L23.59,59.156L24.445,63.868L25.301,68.169L26.156,71.862L27.012,74.804L27.867,76.91L28.723,78.167L29.578,78.63L30.434,78.42L31.289,77.714L32.145,76.735L33,75.725L33.856,74.927L34.712,74.558L35.567,74.785L36.423,75.709L37.278,77.352L38.134,79.659L38.989,82.514L39.845,85.753L40.7,89.193L41.556,92.656L42.411,95.984L43.267,99.059L44.122,101.801L44.978,104.17L45.833,106.161L46.689,107.789L47.545,109.084L48.4,110.081L49.256,110.813L50.111,111.305L50.967,111.575L51.822,111.632L52.678,111.471L53.533,111.076L54.389,110.419L55.244,109.459L56.1,108.145L56.955,106.421L57.811,104.23L58.666,101.53L59.522,98.305L60.378,94.58L61.233,90.437L62.089,86.018L62.944,81.526L63.8,77.215L64.655,73.362L65.511,70.235L66.366,68.059L67.222,66.975L68.077,67.022L68.933,68.117L69.788,70.062L70.644,72.561L71.499,75.252L72.355,77.738L73.211,79.629L74.066,80.578L74.922,80.308L75.777,78.645L76.633,75.54L77.488,71.085L78.344,65.519L79.199,59.223L80.055,52.698L80.91,46.517L81.766,41.271L82.621,37.492L83.477,35.589L84.332,35.79L85.188,38.113L86.044,42.36L86.899,48.154L87.755,54.987L88.61,62.29L89.466,69.499L90.321,76.102L91.177,81.68L92.032,85.912L92.888,88.574L93.743,89.522L94.599,88.683L95.454,86.043L96.31,81.656L97.165,75.661L98.021,68.302L98.877,59.947L99.732,51.087L100.588,42.321L101.443,34.31L102.299,27.709L103.154,23.089L104.01,20.857L104.865,21.2L105.721,24.052L106.576,29.102L107.432,35.835L108.287,43.599L109.143,51.682L109.998,59.388L110.854,66.096L111.71,71.303L112.565,74.639L113.421,75.875L114.276,74.921L115.132,71.825L115.987,66.776L116.843,60.106L117.698,52.288L118.554,43.921L119.409,35.7L120.265,28.353L121.12,22.576L121.976,18.943L122.831,17.842L123.687,19.415L124.543,23.549L125.398,29.891L126.254,37.905L127.109,46.953L127.965,56.376L128.82,65.575L129.676,74.068L130.531,81.518L131.387,87.738L132.242,92.67L133.098,96.352L133.953,98.879L134.809,100.365L135.664,100.915L136.52,100.603L137.376,99.463L138.231,97.486L139.087,94.631L139.942,90.839L140.798,86.055L141.653,80.253L142.509,73.466L143.364,65.81L144.22,57.507L145.075,48.895L145.931,40.413L146.786,32.579L147.642,25.941L148.497,21.017L149.353,18.227L150.209,17.834L151.064,19.904L151.92,24.292L152.775,30.659L153.631,38.513L154.486,47.278L155.342,56.364L156.197,65.23L157.053,73.436L157.908,80.672L158.764,86.759L159.619,91.638L160.475,95.345L161.33,97.977L162.186,99.664L163.042,100.546L163.897,100.75L164.753,100.388L165.608,99.548L166.464,98.295L167.319,96.68L168.175,94.737L169.03,92.494L169.886,89.978L170.741,87.218L171.597,84.256L172.452,81.149L173.308,77.975L174.163,74.833L175.019,71.843L175.875,69.14L176.73,66.86L177.586,65.134L178.441,64.067L179.297,63.73L179.297,107.519L178.441,107.718L177.586,108.297L176.73,109.201L175.875,110.351L175.019,111.651L174.163,113.005L173.308,114.324L172.452,115.539L171.597,116.604L170.741,117.493L169.886,118.2L169.03,118.732L168.175,119.105L167.319,119.33L166.464,119.412L165.608,119.341L164.753,119.087L163.897,118.593L163.042,117.775L162.186,116.517L161.33,114.68L160.475,112.109L159.619,108.651L158.764,104.181L157.908,98.634L157.053,92.037L156.197,84.532L155.342,76.396L154.486,68.036L153.631,59.96L152.775,52.729L151.92,46.893L151.064,42.922L150.209,41.138L149.353,41.676L148.497,44.465L147.642,49.24L146.786,55.588L145.931,63.002L145.075,70.949L144.22,78.932L143.364,86.533L142.509,93.44L141.653,99.457L140.798,104.494L139.942,108.544L139.087,111.657L138.231,113.908L137.376,115.374L136.52,116.112L135.664,116.136L134.809,115.42L133.953,113.889L133.098,111.433L132.242,107.929L131.387,103.27L130.531,97.402L129.676,90.366L128.82,82.329L127.965,73.61L127.109,64.67L126.254,56.091L125.398,48.516L124.543,42.571L123.687,38.78L122.831,37.49L121.976,38.812L121.12,42.603L120.265,48.479L119.409,55.872L118.554,64.094L117.698,72.425L116.843,80.183L115.987,86.776L115.132,91.74L114.276,94.751L113.421,95.625L112.565,94.317L111.71,90.918L110.854,85.654L109.998,78.891L109.143,71.129L108.287,62.981L107.432,55.136L106.576,48.299L105.721,43.116L104.865,40.097L104.01,39.551L103.154,41.542L102.299,45.886L101.443,52.179L100.588,59.856L99.732,68.27L98.877,76.771L98.021,84.769L97.165,91.783L96.31,97.456L95.454,101.554L94.599,103.946L93.743,104.584L92.888,103.485L92.032,100.726L91.177,96.451L90.321,90.882L89.466,84.337L88.61,77.23L87.755,70.066L86.899,63.406L86.044,57.813L85.188,53.786L84.332,51.701L83.477,51.749L82.621,53.91L81.766,57.954L80.91,63.468L80.055,69.919L79.199,76.715L78.344,83.279L77.488,89.11L76.633,93.821L75.777,97.168L74.922,99.053L74.066,99.52L73.211,98.732L72.355,96.958L71.499,94.535L70.644,91.846L69.788,89.277L68.933,87.184L68.077,85.857L67.222,85.49L66.366,86.165L65.511,87.848L64.655,90.399L63.8,93.603L62.944,97.202L62.089,100.933L61.233,104.557L60.378,107.888L59.522,110.801L58.666,113.234L57.811,115.181L56.955,116.676L56.1,117.778L55.244,118.558L54.389,119.088L53.533,119.428L52.678,119.629L51.822,119.724L50.967,119.733L50.111,119.658L49.256,119.489L48.4,119.203L47.545,118.766L46.689,118.132L45.833,117.256L44.978,116.093L44.122,114.613L43.267,112.805L42.411,110.696L41.556,108.349L40.7,105.87L39.845,103.407L38.989,101.129L38.134,99.215L37.278,97.827L36.423,97.083L35.567,97.044L34.712,97.698L33.856,98.956L33,100.669L32.145,102.637L31.289,104.637L30.434,106.445L29.578,107.863L28.723,108.732L27.867,108.946L27.012,108.467L26.156,107.319L25.301,105.591L24.445,103.431L23.59,101.027L22.734,98.59L21.879,96.327L21.023,94.413L20.167,92.963L19.312,92.013L18.456,91.509L17.601,91.32L16.745,91.257L15.89,91.112L15.034,90.697L14.179,89.888L13.323,88.654L12.468,87.071L11.612,85.318L10.757,83.645L9.901,82.338L9.046,81.663L8.19,81.828Z" fill="#1b9e77" opacity="0.5"/></g></g><path class="foreground" aria-hidden="true" d="" display="none"/></g></g></g><path class="foreground" aria-hidden="true" d="" display="none"/></g></g><g class="mark-group role-scope concat_1_concat_1_group" role="graphics-object" aria-roledescription="group mark container"><g transform="translate(283,0)"><path class="background" aria-hidden="true" d="M0.5,0.5h180v120h-180Z" stroke="#ddd"/><g><g class="mark-group role-axis" aria-hidden="true"><g transform="translate(0.5,120.5)"><path class="background" aria-hidden="true" d="M0,0h0v0h0Z" pointer-events="none"/><g><g class="mark-rule role-axis-grid" pointer-events="none"><line transform="translate(20,-120)" x2="0" y2="120" stroke="#ddd" stroke-width="1" opacity="1"/><line transform="translate(60,-120)" x2="0" y2="120" stroke="#ddd" stroke-width="1" opacity="1"/><line transform="translate(100,-120)" x2="0" y2="120" stroke="#ddd" stroke-width="1" opacity="1"/><line transform="translate(140,-120)" x2="0" y2="120" stroke="#ddd" stroke-width="1" opacity="1"/><line transform="translate(180,-120)" x2="0" y2="120" stroke="#ddd" stroke-width="1" opacity="1"/></g></g><path class="foreground" aria-hidden="true" d="" pointer-events="none" display="none"/></g></g><g class="mark-group role-axis" aria-hidden="true"><g transform="translate(0.5,0.5)"><path class="background" aria-hidden="true" d="M0,0h0v0h0Z" pointer-events="none"/><g><g class="mark-rule role-axis-grid" pointer-events="none"><line transform="translate(0,120)" x2="180" y2="0" stroke="#ddd" stroke-width="1" opacity="1"/><line transform="translate(0,80)" x2="180" y2="0" stroke="#ddd" stroke-width="1" opacity="1"/><line transform="translate(0,40)" x2="180" y2="0" stroke="#ddd" stroke-width="1" opacity="1"/><line transform="translate(0,0)" x2="180" y2="0" stroke="#ddd" stroke-width="1" opacity="1"/></g></g><path class="foreground" aria-hidden="true" d="" pointer-events="none" display="none"/></g></g><g class="mark-group role-axis" role="graphics-symbol" aria-roledescription="axis" aria-label="X-axis titled 'InvestmentConstructionValue' for a linear scale with values from 900,000,000 to 1,800,000,000"><g transform="translate(0.5,120.5)"><path class="background" aria-hidden="true" d="M0,0h0v0h0Z" pointer-events="none"/><g><g class="mark-rule role-axis-tick" pointer-events="none"><line transform="translate(20,0)" x2="0" y2="5" stroke="#888" stroke-width="1" opacity="1"/><line transform="translate(60,0)" x2="0" y2="5" stroke="#888" stroke-width="1" opacity="1"/><line transform="translate(100,0)" x2="0" y2="5" stroke="#888" stroke-width="1" opacity="1"/><line transform="translate(140,0)" x2="0" y2="5" stroke="#888" stroke-width="1" opacity="1"/><line transform="translate(180,0)" x2="0" y2="5" stroke="#888" stroke-width="1" opacity="1"/></g><g class="mark-text role-axis-label" pointer-events="none"><text text-anchor="middle" transform="translate(20,15)" font-family="sans-serif" font-size="10px" fill="#000" opacity="1">1,000,000,000</text><text text-anchor="middle" transform="translate(60,15)" font-family="sans-serif" font-size="10px" fill="#000" opacity="0">1,200,000,000</text><text text-anchor="middle" transform="translate(100,15)" font-family="sans-serif" font-size="10px" fill="#000" opacity="0">1,400,000,000</text><text text-anchor="middle" transform="translate(140,15)" font-family="sans-serif" font-size="10px" fill="#000" opacity="0">1,600,000,000</text><text text-anchor="end" transform="translate(180,15)" font-family="sans-serif" font-size="10px" fill="#000" opacity="1">1,800,000,000</text></g><g class="mark-rule role-axis-domain" pointer-events="none"><line transform="translate(0,0)" x2="180" y2="0" stroke="#888" stroke-width="1" opacity="1"/></g><g class="mark-text role-axis-title" pointer-events="none"><text text-anchor="middle" transform="translate(90,30)" font-family="sans-serif" font-size="11px" font-weight="bold" fill="#000" opacity="1">InvestmentConstructionValue</text></g></g><path class="foreground" aria-hidden="true" d="" pointer-events="none" display="none"/></g></g><g class="mark-group role-axis" role="graphics-symbol" aria-roledescription="axis" aria-label="Y-axis titled 'density' for a linear scale with values from 0.000000000 to 0.000000006"><g transform="translate(0.5,0.5)"><path class="background" aria-hidden="true" d="M0,0h0v0h0Z" pointer-events="none"/><g><g class="mark-rule role-axis-tick" pointer-events="none"><line transform="translate(0,120)" x2="-5" y2="0" stroke="#888" stroke-width="1" opacity="1"/><line transform="translate(0,80)" x2="-5" y2="0" stroke="#888" stroke-width="1" opacity="1"/><line transform="translate(0,40)" x2="-5" y2="0" stroke="#888" stroke-width="1" opacity="1"/><line transform="translate(0,0)" x2="-5" y2="0" stroke="#888" stroke-width="1" opacity="1"/></g><g class="mark-text role-axis-label" pointer-events="none"><text text-anchor="end" transform="translate(-7,123)" font-family="sans-serif" font-size="10px" fill="#000" opacity="1">0.000000000</text><text text-anchor="end" transform="translate(-7,83)" font-family="sans-serif" font-size="10px" fill="#000" opacity="1">0.000000002</text><text text-anchor="end" transform="translate(-7,42.99999999999999)" font-family="sans-serif" font-size="10px" fill="#000" opacity="1">0.000000004</text><text text-anchor="end" transform="translate(-7,3)" font-family="sans-serif" font-size="10px" fill="#000" opacity="1">0.000000006</text></g><g class="mark-rule role-axis-domain" pointer-events="none"><line transform="translate(0,120)" x2="0" y2="-120" stroke="#888" stroke-width="1" opacity="1"/></g><g class="mark-text role-axis-title" pointer-events="none"><text text-anchor="middle" transform="translate(-69.3935546875,60) rotate(-90) translate(0,-2)" font-family="sans-serif" font-size="11px" font-weight="bold" fill="#000" opacity="1">density</text></g></g><path class="foreground" aria-hidden="true" d="" pointer-events="none" display="none"/></g></g><g class="mark-group role-scope concat_1_concat_1_pathgroup" role="graphics-object" aria-roledescription="group mark container"><g transform="translate(0,0)"><path class="background" aria-hidden="true" d="M0,0h180v120h-180Z"/><g><g class="mark-area role-mark concat_1_concat_1_marks" role="graphics-object" aria-roledescription="area mark container"><path aria-label="InvestmentConstructionValue: 987533855; density: 1.60216786268e-9; survival_status: 1" role="graphics-symbol" aria-roledescription="area mark" d="M17.507,87.957L18.314,87.655L19.121,88.067L19.928,89.005L20.735,90.236L21.542,91.524L22.35,92.676L23.157,93.58L23.964,94.219L24.771,94.668L25.578,95.067L26.385,95.585L27.192,96.379L27.999,97.559L28.807,99.165L29.614,101.165L30.421,103.466L31.228,105.929L32.035,108.404L32.842,110.75L33.649,112.856L34.456,114.647L35.264,116.087L36.071,117.167L36.878,117.902L37.685,118.311L38.492,118.41L39.299,118.206L40.106,117.696L40.914,116.87L41.721,115.719L42.528,114.246L43.335,112.48L44.142,110.483L44.949,108.356L45.756,106.237L46.563,104.288L47.371,102.675L48.178,101.552L48.985,101.028L49.792,101.159L50.599,101.929L51.406,103.262L52.213,105.028L53.02,107.067L53.828,109.21L54.635,111.306L55.442,113.233L56.249,114.909L57.056,116.293L57.863,117.375L58.67,118.171L59.478,118.706L60.285,119.001L61.092,119.069L61.899,118.899L62.706,118.454L63.513,117.668L64.32,116.446L65.127,114.665L65.935,112.189L66.742,108.878L67.549,104.607L68.356,99.293L69.163,92.919L69.97,85.556L70.777,77.386L71.584,68.706L72.392,59.928L73.199,51.556L74.006,44.143L74.813,38.24L75.62,34.333L76.427,32.774L77.234,33.735L78.042,37.174L78.849,42.833L79.656,50.27L80.463,58.917L81.27,68.15L82.077,77.37L82.884,86.064L83.691,93.853L84.499,100.506L85.306,105.941L86.113,110.194L86.92,113.386L87.727,115.685L88.534,117.275L89.341,118.328L90.148,118.989L90.956,119.371L91.763,119.549L92.57,119.561L93.377,119.411L94.184,119.067L94.991,118.461L95.798,117.491L96.605,116.025L97.413,113.906L98.22,110.973L99.027,107.085L99.834,102.156L100.641,96.189L101.448,89.316L102.255,81.814L103.063,74.106L103.87,66.731L104.677,60.287L105.484,55.352L106.291,52.398L107.098,51.711L107.905,53.344L108.712,57.098L109.52,62.554L110.327,69.127L111.134,76.147L111.941,82.94L112.748,88.903L113.555,93.546L114.362,96.524L115.169,97.643L115.977,96.858L116.784,94.263L117.591,90.081L118.398,84.662L119.205,78.465L120.012,72.035L120.819,65.968L121.627,60.854L122.434,57.216L123.241,55.445L124.048,55.747L124.855,58.119L125.662,62.35L126.469,68.056L127.276,74.742L128.084,81.876L128.891,88.953L129.698,95.561L130.505,101.407L131.312,106.328L132.119,110.284L132.926,113.325L133.733,115.564L134.541,117.138L135.348,118.19L136.155,118.842L136.962,119.188L137.769,119.284L138.576,119.147L139.383,118.754L140.191,118.043L140.998,116.919L141.805,115.259L142.612,112.929L143.419,109.804L144.226,105.797L145.033,100.891L145.84,95.171L146.648,88.843L147.455,82.243L148.262,75.813L149.069,70.059L149.876,65.491L150.683,62.544L151.49,61.513L152.297,62.503L153.105,65.414L153.912,69.953L154.719,75.688L155.526,82.11L156.333,88.711L157.14,95.048L157.947,100.783L158.754,105.707L159.562,109.734L160.369,112.878L161.176,115.228L161.983,116.909L162.79,118.062L163.597,118.818L164.404,119.286L165.212,119.552L166.019,119.674L166.826,119.687L167.633,119.606L168.44,119.43L169.247,119.148L170.054,118.741L170.861,118.191L171.669,117.482L172.476,116.615L173.283,115.603L174.09,114.485L174.897,113.319L175.704,112.184L176.511,111.169L177.318,110.365L178.126,109.848L178.933,109.669L178.933,120L178.126,120L177.318,120L176.511,120L175.704,120L174.897,120L174.09,120L173.283,120L172.476,120L171.669,120L170.861,120L170.054,120L169.247,120L168.44,120L167.633,120L166.826,120L166.019,120L165.212,120L164.404,120L163.597,120L162.79,120L161.983,120L161.176,120L160.369,120L159.562,120L158.754,120L157.947,120L157.14,120L156.333,120L155.526,120L154.719,120L153.912,120L153.105,120L152.297,120L151.49,120L150.683,120L149.876,120L149.069,120L148.262,120L147.455,120L146.648,120L145.84,120L145.033,120L144.226,120L143.419,120L142.612,120L141.805,120L140.998,120L140.191,120L139.383,120L138.576,120L137.769,120L136.962,120L136.155,120L135.348,120L134.541,120L133.733,120L132.926,120L132.119,120L131.312,120L130.505,120L129.698,120L128.891,120L128.084,120L127.276,120L126.469,120L125.662,120L124.855,120L124.048,120L123.241,120L122.434,120L121.627,120L120.819,120L120.012,120L119.205,120L118.398,120L117.591,120L116.784,120L115.977,120L115.169,120L114.362,120L113.555,120L112.748,120L111.941,120L111.134,120L110.327,120L109.52,120L108.712,120L107.905,120L107.098,120L106.291,120L105.484,120L104.677,120L103.87,120L103.063,120L102.255,120L101.448,120L100.641,120L99.834,120L99.027,120L98.22,120L97.413,120L96.605,120L95.798,120L94.991,120L94.184,120L93.377,120L92.57,120L91.763,120L90.956,120L90.148,120L89.341,120L88.534,120L87.727,120L86.92,120L86.113,120L85.306,120L84.499,120L83.691,120L82.884,120L82.077,120L81.27,120L80.463,120L79.656,120L78.849,120L78.042,120L77.234,120L76.427,120L75.62,120L74.813,120L74.006,120L73.199,120L72.392,120L71.584,120L70.777,120L69.97,120L69.163,120L68.356,120L67.549,120L66.742,120L65.935,120L65.127,120L64.32,120L63.513,120L62.706,120L61.899,120L61.092,120L60.285,120L59.478,120L58.67,120L57.863,120L57.056,120L56.249,120L55.442,120L54.635,120L53.828,120L53.02,120L52.213,120L51.406,120L50.599,120L49.792,120L48.985,120L48.178,120L47.371,120L46.563,120L45.756,120L44.949,120L44.142,120L43.335,120L42.528,120L41.721,120L40.914,120L40.106,120L39.299,120L38.492,120L37.685,120L36.878,120L36.071,120L35.264,120L34.456,120L33.649,120L32.842,120L32.035,120L31.228,120L30.421,120L29.614,120L28.807,120L27.999,120L27.192,120L26.385,120L25.578,120L24.771,120L23.964,120L23.157,120L22.35,120L21.542,120L20.735,120L19.928,120L19.121,120L18.314,120L17.507,120Z" fill="#d95f02" opacity="0.5"/></g></g><path class="foreground" aria-hidden="true" d="" display="none"/></g><g transform="translate(0,0)"><path class="background" aria-hidden="true" d="M0,0h180v120h-180Z"/><g><g class="mark-area role-mark concat_1_concat_1_marks" role="graphics-object" aria-roledescription="area mark container"><path aria-label="InvestmentConstructionValue: 987533855; density: 3.05401806286e-9; survival_status: 0" role="graphics-symbol" aria-roledescription="area mark" d="M17.507,26.876L18.314,25.863L19.121,26.008L19.928,27.124L20.735,28.963L21.542,31.269L22.35,33.819L23.157,36.466L23.964,39.15L24.771,41.899L25.578,44.803L26.385,47.982L27.192,51.541L27.999,55.542L28.807,59.977L29.614,64.772L30.421,69.792L31.228,74.863L32.035,79.806L32.842,84.454L33.649,88.673L34.456,92.375L35.264,95.511L36.071,98.072L36.878,100.068L37.685,101.525L38.492,102.468L39.299,102.918L40.106,102.886L40.914,102.384L41.721,101.425L42.528,100.036L43.335,98.272L44.142,96.219L44.949,94.004L45.756,91.787L46.563,89.75L47.371,88.081L48.178,86.946L48.985,86.465L49.792,86.699L50.599,87.636L51.406,89.196L52.213,91.241L53.02,93.601L53.828,96.094L54.635,98.549L55.442,100.827L56.249,102.826L57.056,104.482L57.863,105.767L58.67,106.677L59.478,107.22L60.285,107.406L61.092,107.237L61.899,106.695L62.706,105.745L63.513,104.322L64.32,102.34L65.127,99.692L65.935,96.256L66.742,91.914L67.549,86.569L68.356,80.164L69.163,72.71L69.97,64.311L70.777,55.176L71.584,45.634L72.392,36.12L73.199,27.163L74.006,19.334L74.813,13.199L75.62,9.253L76.427,7.851L77.234,9.164L78.042,13.141L78.849,19.511L79.656,27.816L80.463,37.466L81.27,47.813L82.077,58.23L82.884,68.177L83.691,77.245L84.499,85.177L85.306,91.863L86.113,97.313L86.92,101.625L87.727,104.949L88.534,107.449L89.341,109.285L90.148,110.593L90.956,111.476L91.763,112.008L92.57,112.225L93.377,112.135L94.184,111.71L94.991,110.891L95.798,109.588L96.605,107.68L97.413,105.024L98.22,101.476L99.027,96.911L99.834,91.258L100.641,84.54L101.448,76.905L102.255,68.645L103.063,60.197L103.87,52.114L104.677,45.003L105.484,39.452L106.291,35.936L107.098,34.746L107.905,35.934L108.712,39.302L109.52,44.425L110.327,50.715L111.134,57.496L111.941,64.091L112.748,69.89L113.555,74.4L114.362,77.274L115.169,78.318L115.977,77.486L116.784,74.875L117.591,70.714L118.398,65.357L119.205,59.271L120.012,53.006L120.819,47.166L121.627,42.346L122.434,39.074L123.241,37.741L124.048,38.556L124.855,41.512L125.662,46.391L126.469,52.804L127.276,60.245L128.084,68.167L128.891,76.054L129.698,83.475L130.505,90.122L131.312,95.816L132.119,100.5L132.926,104.209L133.733,107.041L134.541,109.122L135.348,110.584L136.155,111.543L136.962,112.087L137.769,112.27L138.576,112.111L139.383,111.591L140.191,110.655L140.998,109.217L141.805,107.168L142.612,104.385L143.419,100.761L144.226,96.226L145.033,90.78L145.84,84.527L146.648,77.691L147.455,70.623L148.262,63.781L149.069,57.685L149.876,52.852L150.683,49.726L151.49,48.604L152.297,49.592L153.105,52.583L153.912,57.277L154.719,63.227L155.526,69.911L156.333,76.802L157.14,83.433L157.947,89.445L158.754,94.603L159.562,98.796L160.369,102.015L161.176,104.324L161.983,105.828L162.79,106.65L163.597,106.904L164.404,106.693L165.212,106.096L166.019,105.173L166.826,103.964L167.633,102.5L168.44,100.797L169.247,98.869L170.054,96.73L170.861,94.396L171.669,91.892L172.476,89.26L173.283,86.558L174.09,83.868L174.897,81.291L175.704,78.944L176.511,76.953L177.318,75.436L178.126,74.49L178.933,74.183L178.933,109.669L178.126,109.848L177.318,110.365L176.511,111.169L175.704,112.184L174.897,113.319L174.09,114.485L173.283,115.603L172.476,116.615L171.669,117.482L170.861,118.191L170.054,118.741L169.247,119.148L168.44,119.43L167.633,119.606L166.826,119.687L166.019,119.674L165.212,119.552L164.404,119.286L163.597,118.818L162.79,118.062L161.983,116.909L161.176,115.228L160.369,112.878L159.562,109.734L158.754,105.707L157.947,100.783L157.14,95.048L156.333,88.711L155.526,82.11L154.719,75.688L153.912,69.953L153.105,65.414L152.297,62.503L151.49,61.513L150.683,62.544L149.876,65.491L149.069,70.059L148.262,75.813L147.455,82.243L146.648,88.843L145.84,95.171L145.033,100.891L144.226,105.797L143.419,109.804L142.612,112.929L141.805,115.259L140.998,116.919L140.191,118.043L139.383,118.754L138.576,119.147L137.769,119.284L136.962,119.188L136.155,118.842L135.348,118.19L134.541,117.138L133.733,115.564L132.926,113.325L132.119,110.284L131.312,106.328L130.505,101.407L129.698,95.561L128.891,88.953L128.084,81.876L127.276,74.742L126.469,68.056L125.662,62.35L124.855,58.119L124.048,55.747L123.241,55.445L122.434,57.216L121.627,60.854L120.819,65.968L120.012,72.035L119.205,78.465L118.398,84.662L117.591,90.081L116.784,94.263L115.977,96.858L115.169,97.643L114.362,96.524L113.555,93.546L112.748,88.903L111.941,82.94L111.134,76.147L110.327,69.127L109.52,62.554L108.712,57.098L107.905,53.344L107.098,51.711L106.291,52.398L105.484,55.352L104.677,60.287L103.87,66.731L103.063,74.106L102.255,81.814L101.448,89.316L100.641,96.189L99.834,102.156L99.027,107.085L98.22,110.973L97.413,113.906L96.605,116.025L95.798,117.491L94.991,118.461L94.184,119.067L93.377,119.411L92.57,119.561L91.763,119.549L90.956,119.371L90.148,118.989L89.341,118.328L88.534,117.275L87.727,115.685L86.92,113.386L86.113,110.194L85.306,105.941L84.499,100.506L83.691,93.853L82.884,86.064L82.077,77.37L81.27,68.15L80.463,58.917L79.656,50.27L78.849,42.833L78.042,37.174L77.234,33.735L76.427,32.774L75.62,34.333L74.813,38.24L74.006,44.143L73.199,51.556L72.392,59.928L71.584,68.706L70.777,77.386L69.97,85.556L69.163,92.919L68.356,99.293L67.549,104.607L66.742,108.878L65.935,112.189L65.127,114.665L64.32,116.446L63.513,117.668L62.706,118.454L61.899,118.899L61.092,119.069L60.285,119.001L59.478,118.706L58.67,118.171L57.863,117.375L57.056,116.293L56.249,114.909L55.442,113.233L54.635,111.306L53.828,109.21L53.02,107.067L52.213,105.028L51.406,103.262L50.599,101.929L49.792,101.159L48.985,101.028L48.178,101.552L47.371,102.675L46.563,104.288L45.756,106.237L44.949,108.356L44.142,110.483L43.335,112.48L42.528,114.246L41.721,115.719L40.914,116.87L40.106,117.696L39.299,118.206L38.492,118.41L37.685,118.311L36.878,117.902L36.071,117.167L35.264,116.087L34.456,114.647L33.649,112.856L32.842,110.75L32.035,108.404L31.228,105.929L30.421,103.466L29.614,101.165L28.807,99.165L27.999,97.559L27.192,96.379L26.385,95.585L25.578,95.067L24.771,94.668L23.964,94.219L23.157,93.58L22.35,92.676L21.542,91.524L20.735,90.236L19.928,89.005L19.121,88.067L18.314,87.655L17.507,87.957Z" fill="#1b9e77" opacity="0.5"/></g></g><path class="foreground" aria-hidden="true" d="" display="none"/></g></g></g><path class="foreground" aria-hidden="true" d="" display="none"/></g></g></g><path class="foreground" aria-hidden="true" d="" display="none"/></g></g><g class="mark-group role-legend" role="graphics-symbol" aria-roledescription="legend" aria-label="Symbol legend titled 'survival_status' for fill color with 2 values: 0, 1"><g transform="translate(483,0)"><path class="background" aria-hidden="true" d="M0,0h81v40h-81Z" pointer-events="none"/><g><g class="mark-group role-legend-entry"><g transform="translate(0,16)"><path class="background" aria-hidden="true" d="M0,0h0v0h0Z" pointer-events="none"/><g><g class="mark-group role-scope" role="graphics-object" aria-roledescription="group mark container"><g transform="translate(0,0)"><path class="background" aria-hidden="true" d="M0,0h21.5615234375v11h-21.5615234375Z" pointer-events="none" opacity="1"/><g><g class="mark-symbol role-legend-symbol" pointer-events="none"><path transform="translate(6,6)" d="M5,0A5,5,0,1,1,-5,0A5,5,0,1,1,5,0" fill="#1b9e77" stroke-width="1.5" opacity="0.5"/></g><g class="mark-text role-legend-label" pointer-events="none"><text text-anchor="start" transform="translate(16,9)" font-family="sans-serif" font-size="10px" fill="#000" opacity="1">0</text></g></g><path class="foreground" aria-hidden="true" d="" pointer-events="none" display="none"/></g><g transform="translate(0,13)"><path class="background" aria-hidden="true" d="M0,0h21.5615234375v11h-21.5615234375Z" pointer-events="none" opacity="1"/><g><g class="mark-symbol role-legend-symbol" pointer-events="none"><path transform="translate(6,6)" d="M5,0A5,5,0,1,1,-5,0A5,5,0,1,1,5,0" fill="#d95f02" stroke-width="1.5" opacity="0.5"/></g><g class="mark-text role-legend-label" pointer-events="none"><text text-anchor="start" transform="translate(16,9)" font-family="sans-serif" font-size="10px" fill="#000" opacity="1">1</text></g></g><path class="foreground" aria-hidden="true" d="" pointer-events="none" display="none"/></g></g></g><path class="foreground" aria-hidden="true" d="" pointer-events="none" display="none"/></g></g><g class="mark-text role-legend-title" pointer-events="none"><text text-anchor="start" transform="translate(0,9)" font-family="sans-serif" font-size="11px" font-weight="bold" fill="#000" opacity="1">survival_status</text></g></g><path class="foreground" aria-hidden="true" d="" pointer-events="none" display="none"/></g></g></g><path class="foreground" aria-hidden="true" d="" display="none"/></g></g></g></svg>